<?xml version="1.0" encoding="UTF-8"?>
<svg width="24px" height="24px" viewBox="0 0 24 24" version="1.1" xmlns="http://www.w3.org/2000/svg" xmlns:xlink="http://www.w3.org/1999/xlink">
    <!-- Generator: Sketch 42 (36781) - http://www.bohemiancoding.com/sketch -->
    <title>icon-shopping-basket-add</title>
    <desc>Created with Sketch.</desc>
    <defs></defs>
    <g id="Page-1" stroke="none" stroke-width="1" fill="none" fill-rule="evenodd">
        <g id="icon-shopping-basket-add" fill-rule="nonzero" fill="#000000">
            <g id="Outline_Icons">
                <g id="Group">
                    <path d="M11.512,18 L3.913,18 L2.135,10 L18.889,10 L18.467,11.898 C18.407,12.168 18.577,12.435 18.847,12.495 C19.121,12.554 19.384,12.384 19.444,12.115 L19.913,10 L20.512,10 C20.788,10 21.012,9.776 21.012,9.5 L21.012,7.5 C21.012,7.224 20.788,7 20.512,7 L0.512,7 C0.236,7 0.012,7.224 0.012,7.5 L0.012,9.5 C0.012,9.776 0.236,10 0.512,10 L1.11,10 L3.023,18.608 C3.074,18.837 3.277,19 3.512,19 L11.512,19 C11.788,19 12.012,18.776 12.012,18.5 C12.012,18.224 11.788,18 11.512,18 Z M1.012,8 L20.012,8 L20.012,9 L19.512,9 L1.512,9 L1.012,9 L1.012,8 L1.012,8 Z" id="Shape"></path>
                    <path d="M3.512,6 C3.625,6 3.739,5.962 3.832,5.884 L9.832,0.884 C10.044,0.707 10.072,0.392 9.895,0.179 C9.718,-0.034 9.402,-0.06 9.191,0.116 L3.191,5.116 C2.979,5.292 2.951,5.608 3.128,5.82 C3.227,5.939 3.369,6 3.512,6 Z" id="Shape"></path>
                    <path d="M17.191,5.884 C17.285,5.962 17.398,6 17.512,6 C17.655,6 17.797,5.939 17.896,5.82 C18.073,5.608 18.044,5.292 17.833,5.115 L11.833,0.115 C11.621,-0.06 11.306,-0.034 11.129,0.179 C10.952,0.391 10.981,0.707 11.192,0.884 L17.191,5.884 Z" id="Shape"></path>
                    <path d="M18.512,13 C15.48,13 13.012,15.467 13.012,18.5 C13.012,21.533 15.48,24 18.512,24 C21.544,24 24.012,21.533 24.012,18.5 C24.012,15.467 21.544,13 18.512,13 Z M18.512,23 C16.031,23 14.012,20.981 14.012,18.5 C14.012,16.019 16.031,14 18.512,14 C20.993,14 23.012,16.019 23.012,18.5 C23.012,20.981 20.993,23 18.512,23 Z" id="Shape"></path>
                    <path d="M21.013,18 L19.012,18 L19.012,16 C19.012,15.724 18.788,15.5 18.512,15.5 C18.236,15.5 18.012,15.724 18.012,16 L18.012,18 L16.013,18 C15.737,18 15.513,18.224 15.513,18.5 C15.513,18.776 15.737,19 16.013,19 L18.012,19 L18.012,21 C18.012,21.276 18.236,21.5 18.512,21.5 C18.788,21.5 19.012,21.276 19.012,21 L19.012,19 L21.013,19 C21.289,19 21.513,18.776 21.513,18.5 C21.513,18.224 21.289,18 21.013,18 Z" id="Shape"></path>
                </g>
            </g>
        </g>
    </g>
</svg>