<?xml version="1.0" encoding="UTF-8"?>
<svg width="24px" height="24px" viewBox="0 0 24 24" version="1.1" xmlns="http://www.w3.org/2000/svg" xmlns:xlink="http://www.w3.org/1999/xlink">
    <!-- Generator: Sketch 42 (36781) - http://www.bohemiancoding.com/sketch -->
    <title>icon-shopping-cart-checkout</title>
    <desc>Created with Sketch.</desc>
    <defs></defs>
    <g id="Page-1" stroke="none" stroke-width="1" fill="none" fill-rule="evenodd">
        <g id="icon-shopping-cart-checkout" fill-rule="nonzero" fill="#000000">
            <g id="Filled_Icon">
                <g id="Group">
                    <path d="M12.025,18 C12.051,17.659 12.104,17.325 12.181,17 L8.396,17 L8.161,16 L12.502,16 C13.483,13.653 15.802,12 18.5,12 C19.737,12 20.891,12.354 21.876,12.956 L23.975,6.659 C24.025,6.506 24,6.338 23.906,6.208 C23.812,6.078 23.661,6 23.5,6 L5.809,6 L4.487,0.386 C4.434,0.16 4.232,0 4,0 L0.5,0 C0.225,0 0,0.224 0,0.5 C0,0.776 0.225,1 0.5,1 L3.604,1 L7.393,17.104 C6.588,17.363 6,18.11 6,19 C6,20.104 6.897,21 8,21 C9.104,21 10,20.104 10,19 C10,18.635 9.895,18.296 9.723,18 L12.025,18 Z" id="Shape"></path>
                    <path d="M18.498,13 C15.466,13 12.998,15.467 12.998,18.5 C12.998,21.533 15.466,24 18.498,24 C21.53,24 23.998,21.533 23.998,18.5 C23.998,15.467 21.53,13 18.498,13 Z M21.351,17.355 L18.326,20.355 C18.232,20.448 18.105,20.5 17.973,20.5 C17.83,20.51 17.711,20.446 17.617,20.352 L15.642,18.348 C15.449,18.151 15.451,17.833 15.648,17.64 C15.843,17.447 16.162,17.448 16.355,17.644 L17.977,19.292 L20.646,16.645 C20.843,16.451 21.159,16.453 21.354,16.648 C21.548,16.844 21.546,17.161 21.351,17.355 Z" id="Shape"></path>
                </g>
            </g>
        </g>
    </g>
</svg>