<?xml version="1.0" encoding="UTF-8"?>
<svg width="23px" height="24px" viewBox="0 0 23 24" version="1.1" xmlns="http://www.w3.org/2000/svg" xmlns:xlink="http://www.w3.org/1999/xlink">
    <!-- Generator: Sketch 42 (36781) - http://www.bohemiancoding.com/sketch -->
    <title>icon-shopping-bag-2-checkout</title>
    <desc>Created with Sketch.</desc>
    <defs></defs>
    <g id="Page-1" stroke="none" stroke-width="1" fill="none" fill-rule="evenodd">
        <g id="icon-shopping-bag-2-checkout" transform="translate(-1.000000, 0.000000)" fill-rule="nonzero" fill="#000000">
            <g id="Filled_Icon">
                <g id="Group">
                    <path d="M20.469,8 C20.745,8 20.969,8.224 20.969,8.5 L20.969,23.5 C20.969,23.776 20.745,24 20.469,24 L1.469,24 C1.192,24 0.969,23.776 1,23.5 L1,8.5 C0.969,8.224 1.192,8 1.469,8 L20.469,8 Z M15.528,13.674 C15.892,13.258 15.849,12.626 15.432,12.263 C15.017,11.901 14.385,11.943 14.022,12.359 L9.676,17.337 L7.933,15.594 C7.543,15.203 6.91,15.203 6.519,15.594 C6.128,15.985 6.128,16.617 6.519,17.008 L9.019,19.508 C9.206,19.696 9.461,19.801 9.726,19.801 L9.76,19.801 C10.037,19.791 10.297,19.667 10.479,19.458 L15.528,13.674 Z" id="Combined-Shape"></path>
                    <path d="M6.469,7 C6.745,7 6.969,6.776 6.969,6.5 L6.969,5 C6.969,2.795 8.764,1 10.969,1 C13.174,1 14.969,2.795 14.969,5 L14.969,6.5 C14.969,6.776 15.193,7 15.469,7 C15.745,7 15.969,6.776 15.969,6.5 L15.969,5 C15.969,2.243 13.726,0 10.969,0 C8.212,0 5.969,2.243 5.969,5 L5.969,6.5 C5.969,6.776 6.192,7 6.469,7 Z" id="Shape"></path>
                    <path d="M23.479,2.611 L21.358,0.489 C21.264,0.395 21.137,0.342 21.004,0.342 C20.871,0.342 20.744,0.395 20.65,0.489 L17.114,4.026 C17.02,4.119 16.968,4.246 16.968,4.378 L16.968,6.5 C16.968,6.776 17.192,7 17.468,7 L19.59,7 C19.723,7 19.85,6.947 19.944,6.853 L23.479,3.318 C23.675,3.123 23.675,2.807 23.479,2.611 Z" id="Shape"></path>
                </g>
            </g>
        </g>
    </g>
</svg>