<?xml version="1.0" encoding="UTF-8"?>
<svg width="9px" height="18px" viewBox="0 0 9 18" version="1.1" xmlns="http://www.w3.org/2000/svg" xmlns:xlink="http://www.w3.org/1999/xlink">
    <!-- Generator: Sketch 42 (36781) - http://www.bohemiancoding.com/sketch -->
    <title>icon-address-1-outline</title>
    <desc>Created with Sketch.</desc>
    <defs></defs>
    <g id="Page-1" stroke="none" stroke-width="1" fill="none" fill-rule="evenodd">
        <g id="icon-address-1-outline" fill-rule="nonzero" fill="#000000">
            <g id="Outline_Icons">
                <g id="Group">
                    <path d="M9,4.5 C9,2.019 6.981,0 4.5,0 C2.019,0 0,2.019 0,4.5 C0,6.81 1.756,8.697 4,8.949 L4,17.5 C4,17.776 4.224,18 4.5,18 C4.776,18 5,17.776 5,17.5 L5,8.949 C7.244,8.697 9,6.81 9,4.5 Z M4.5,8 C2.57,8 1,6.43 1,4.5 C1,2.57 2.57,1 4.5,1 C6.43,1 8,2.57 8,4.5 C8,6.43 6.43,8 4.5,8 Z" id="Shape"></path>
                    <path d="M4.5,2 C4.224,2 4,2.224 4,2.5 C4,2.776 4.224,3 4.5,3 C5.327,3 6,3.673 6,4.5 C6,4.776 6.224,5 6.5,5 C6.776,5 7,4.776 7,4.5 C7,3.122 5.878,2 4.5,2 Z" id="Shape"></path>
                </g>
            </g>
        </g>
    </g>
</svg>