<?xml version="1.0" encoding="UTF-8"?>
<svg width="16px" height="24px" viewBox="0 0 16 24" version="1.1" xmlns="http://www.w3.org/2000/svg" xmlns:xlink="http://www.w3.org/1999/xlink">
    <!-- Generator: Sketch 42 (36781) - http://www.bohemiancoding.com/sketch -->
    <title>icon-phone-1-outline</title>
    <desc>Created with Sketch.</desc>
    <defs></defs>
    <g id="Page-1" stroke="none" stroke-width="1" fill="none" fill-rule="evenodd">
        <g id="icon-phone-1-outline" fill-rule="nonzero" fill="#000000">
            <g id="Outline_Icons">
                <g id="Group">
                    <path d="M13.5,0 L2.5,0 C1.122,0 0,1.121 0,2.5 L0,21.5 C0,22.879 1.122,24 2.5,24 L13.5,24 C14.878,24 16,22.879 16,21.5 L16,2.5 C16,1.121 14.878,0 13.5,0 Z M1,5 L15,5 L15,19 L1,19 L1,5 Z M2.5,1 L13.5,1 C14.327,1 15,1.673 15,2.5 L15,4 L1,4 L1,2.5 C1,1.673 1.673,1 2.5,1 Z M13.5,23 L2.5,23 C1.673,23 1,22.327 1,21.5 L1,20 L15,20 L15,21.5 C15,22.327 14.327,23 13.5,23 Z" id="Shape"></path>
                    <path d="M5.5,3 L10.5,3 C10.776,3 11,2.776 11,2.5 C11,2.224 10.776,2 10.5,2 L5.5,2 C5.224,2 5,2.224 5,2.5 C5,2.776 5.224,3 5.5,3 Z" id="Shape"></path>
                    <circle id="Oval" cx="8" cy="21.5" r="1"></circle>
                </g>
            </g>
        </g>
    </g>
</svg>