<?xml version="1.0" encoding="UTF-8"?>
<svg width="24px" height="23px" viewBox="0 0 24 23" version="1.1" xmlns="http://www.w3.org/2000/svg" xmlns:xlink="http://www.w3.org/1999/xlink">
    <!-- Generator: Sketch 42 (36781) - http://www.bohemiancoding.com/sketch -->
    <title>icon-shopping-bag-outline</title>
    <desc>Created with Sketch.</desc>
    <defs></defs>
    <g id="Page-1" stroke="none" stroke-width="1" fill="none" fill-rule="evenodd">
        <g id="icon-shopping-bag-outline" fill-rule="nonzero" fill="#000000">
            <g id="Outline_Icons">
                <g id="Group">
                    <path d="M23.8,7.2 L23.8,7.2 L21.7,5.2 C21.6,5.1 21.5,5 21.4,5 L18,5 L18,6 L21.2,6 L22.3,7 L17,7 L17,5 C17,2.2 14.8,0 12,0 C9.2,0 7,2.3 7,5 L7,7 L1.8,7 L2.9,6 L6,6 L6,5 L2.8,5 C2.7,5 2.6,5 2.5,5.1 L0.3,7.1 L0.3,7.1 C0.1,7.2 0,7.4 0,7.5 L0,22.5 C0,22.8 0.2,23 0.5,23 L23.5,23 C23.8,23 24,22.8 24,22.5 L24,7.5 C24,7.4 23.9,7.2 23.8,7.2 Z M8,5 C8,2.8 9.8,1 12,1 C14.2,1 16,2.8 16,5 L16,7 L8,7 L8,5 Z M23,22 L1,22 L1,8 L7.5,8 L16.5,8 L23,8 L23,22 Z" id="Shape"></path>
                    <rect id="Rectangle-path" x="9" y="5" width="6" height="1"></rect>
                </g>
            </g>
        </g>
    </g>
</svg>