<?xml version="1.0" encoding="UTF-8"?>
<svg width="22px" height="22px" viewBox="0 0 22 22" version="1.1" xmlns="http://www.w3.org/2000/svg" xmlns:xlink="http://www.w3.org/1999/xlink">
    <!-- Generator: Sketch 42 (36781) - http://www.bohemiancoding.com/sketch -->
    <title>icon-user-5-outline</title>
    <desc>Created with Sketch.</desc>
    <defs></defs>
    <g id="Page-1" stroke="none" stroke-width="1" fill="none" fill-rule="evenodd">
        <g id="icon-user-5-outline" fill-rule="nonzero" fill="#000000">
            <g id="Outline_Icons">
                <path d="M11,0 C4.93441667,0 0,4.93441667 0,11 C0,13.915 1.12933333,16.66225 3.18083333,18.7348333 C5.2635,20.8404167 8.04008333,22 11,22 C13.9645,22 16.7456667,20.8358333 18.8301667,18.72475 C20.8743333,16.6530833 22,13.9095 22,11 C22,4.93441667 17.0655833,0 11,0 Z M4.26708333,18.4891667 C5.21033333,17.9730833 6.589,17.47075 7.93466667,16.9821667 C8.40583333,16.8116667 8.87608333,16.6411667 9.328,16.46975 C9.50675,16.4019167 9.62408333,16.2314167 9.62408333,16.04075 L9.62408333,13.75 C9.62408333,13.5584167 9.49758333,13.3851667 9.31791667,13.3173333 C9.27483333,13.30175 8.25,12.8993333 8.25,11 C8.25,10.747 8.06025,10.5471667 7.80816667,10.5471667 C7.76508333,10.5178333 7.68166667,10.3473333 7.68166667,10.0833333 C7.68166667,9.81933333 7.76508333,9.64883333 7.79166667,9.625 C8.04466667,9.625 8.25,9.41966667 8.25,9.16666667 C8.25,9.053 8.21608333,8.932 8.14183333,8.668 C8.00708333,8.18858333 7.64958333,6.9135 7.964,6.50008333 C7.99883333,6.45241667 8.18858333,6.32133333 8.6185,6.4075 C8.85683333,6.45883333 9.09425,6.30758333 9.15291667,6.06925 C9.30141667,5.47433333 10.3684167,5.04166667 11.6875,5.04166667 C13.0065833,5.04166667 14.0735833,5.47433333 14.2220833,6.06925 C14.432,6.90983333 14.0589167,8.07491667 13.87925,8.635 C13.7903333,8.91458333 13.75,9.04108333 13.75,9.16666667 C13.75,9.41966667 13.93975,9.6195 14.1918333,9.6195 C14.234,9.64883333 14.3174167,9.81933333 14.3174167,10.0833333 C14.3174167,10.3473333 14.234,10.5178333 14.2074167,10.5416667 C13.9544167,10.5416667 13.7490833,10.747 13.7490833,11 C13.7490833,12.8993333 12.72425,13.30175 12.6875833,13.3155 C12.5015,13.3778333 12.375,13.5529167 12.375,13.75 L12.375,16.0416667 C12.375,16.2323333 12.49325,16.40375 12.672,16.4715833 C13.16975,16.6576667 13.6665833,16.8373333 14.1515,17.0133333 C15.5356667,17.5138333 16.84925,17.9905 17.7439167,18.4790833 C15.8885833,20.1556667 13.5208333,21.0833333 11,21.0833333 C8.48466667,21.0833333 6.1215,20.1593333 4.26708333,18.4891667 Z M18.4323333,17.8126667 C17.4725833,17.23975 16.0645833,16.7300833 14.4631667,16.1516667 C14.0781667,16.0123333 13.6858333,15.8693333 13.2916667,15.7245 L13.2916667,14.0305 C13.7509167,13.74725 14.5603333,13.0148333 14.6575,11.3391667 C15.0113333,11.132 15.235,10.67275 15.235,10.0833333 C15.235,9.5535 15.0535,9.12725 14.7583333,8.89716667 C14.9810833,8.20325 15.3825833,6.93091667 15.11125,5.84741667 C14.7931667,4.576 13.068,4.125 11.6875,4.125 C10.4573333,4.125 8.954,4.48341667 8.41591667,5.45966667 C7.76783333,5.42116667 7.41216667,5.709 7.23341667,5.9455 C6.65133333,6.71458333 7.03541667,8.11616667 7.25175,8.888 C6.95108333,9.11716667 6.765,9.54708333 6.765,10.0833333 C6.765,10.67275 6.98866667,11.132 7.3425,11.3391667 C7.43966667,13.0148333 8.24908333,13.7463333 8.70833333,14.0305 L8.70833333,15.7245 C8.35266667,15.8574167 7.98783333,15.9894167 7.623,16.1214167 C6.13341667,16.6613333 4.59891667,17.21775 3.57775,17.8245833 C1.859,15.95825 0.916666667,13.54925 0.916666667,11 C0.916666667,5.44041667 5.44041667,0.916666667 11,0.916666667 C16.5595833,0.916666667 21.0833333,5.44041667 21.0833333,11 C21.0833333,13.5428333 20.1446667,15.94725 18.4323333,17.8126667 Z" id="Shape"></path>
            </g>
        </g>
    </g>
</svg>