<?xml version="1.0" encoding="UTF-8"?>
<svg width="26px" height="29px" viewBox="0 0 26 29" version="1.1" xmlns="http://www.w3.org/2000/svg" xmlns:xlink="http://www.w3.org/1999/xlink">
    <!-- Generator: Sketch 42 (36781) - http://www.bohemiancoding.com/sketch -->
    <title>icon-shopping-basket-2-checkout</title>
    <desc>Created with Sketch.</desc>
    <defs></defs>
    <g id="Page-1" stroke="none" stroke-width="1" fill="none" fill-rule="evenodd">
        <path d="M22.1508876,17.2124251 L22.917,13 L23.5,13 C23.775,13 24,12.776 24,12.5 L24,10.5 C24,10.224 23.775,10 23.5,10 L22.9,10 L22.072,6.272 C21.412,3.303 18.91,1.197 15.913,1.017 C15.711,0.428 15.156,0 14.5,0 L9.5,0 C8.842,0 8.288,0.428 8.086,1.018 C5.088,1.198 2.586,3.304 1.926,6.273 L1.099,10 L0.5,10 C0.224,10 0,10.224 0,10.5 L0,12.5 C0,12.776 0.224,13 0.5,13 L1.082,13 L3.008,23.59 C3.051,23.827 3.258,24 3.5,24 L14.0190388,24 C14.0064238,23.8349613 14,23.6682173 14,23.5 C14,19.9155455 16.9167273,17 20.5,17 C21.070196,17 21.6235141,17.0738258 22.1508876,17.2124251 Z M20.5,18 C17.468,18 15,20.467 15,23.5 C15,26.533 17.468,29 20.5,29 C23.532,29 26,26.533 26,23.5 C26,20.467 23.532,18 20.5,18 Z M23.353,22.355 L20.328,25.355 C20.234,25.448 20.107,25.5 19.975,25.5 C19.832,25.51 19.713,25.446 19.619,25.352 L17.644,23.348 C17.451,23.151 17.453,22.833 17.65,22.64 C17.845,22.447 18.164,22.448 18.357,22.644 L19.979,24.292 L22.648,21.645 C22.845,21.451 23.161,21.453 23.356,21.648 C23.55,21.844 23.548,22.161 23.353,22.355 Z M2.902,6.489 C3.461,3.979 5.566,2.19 8.097,2.018 C8.309,2.59 8.855,3 9.5,3 L14.5,3 C15.145,3 15.69,2.59 15.902,2.018 C18.431,2.191 20.538,3.979 21.096,6.49 L21.876,10 L2.123,10 L2.902,6.489 Z M6,20.5 C6,20.776 5.775,21 5.5,21 C5.224,21 5,20.776 5,20.5 L5,14.5 C5,14.224 5.224,14 5.5,14 C5.775,14 6,14.224 6,14.5 L6,20.5 Z M10,20.5 C10,20.776 9.775,21 9.5,21 C9.224,21 9,20.776 9,20.5 L9,14.5 C9,14.224 9.224,14 9.5,14 C9.775,14 10,14.224 10,14.5 L10,20.5 Z M15,19.5714286 C15,19.808 14.775,20 14.5,20 C14.224,20 14,19.808 14,19.5714286 L14,14.4285714 C14,14.192 14.224,14 14.5,14 C14.775,14 15,14.192 15,14.4285714 L15,19.5714286 Z M19,16.7857143 C19,16.904 18.775,17 18.5,17 C18.224,17 18,16.904 18,16.7857143 L18,14.2142857 C18,14.096 18.224,14 18.5,14 C18.775,14 19,14.096 19,14.2142857 L19,16.7857143 Z M23,12 L22.5,12 L1.5,12 L1,12 L1,11 L1.5,11 L22.5,11 L23,11 L23,12 Z" id="icon-shopping-basket-2-checkout" fill="#000000" fill-rule="nonzero"></path>
    </g>
</svg>