<?xml version="1.0" encoding="UTF-8"?>
<svg width="24px" height="21px" viewBox="0 0 24 21" version="1.1" xmlns="http://www.w3.org/2000/svg" xmlns:xlink="http://www.w3.org/1999/xlink">
    <!-- Generator: Sketch 42 (36781) - http://www.bohemiancoding.com/sketch -->
    <title>icon-shopping-cart</title>
    <desc>Created with Sketch.</desc>
    <defs></defs>
    <g id="Page-1" stroke="none" stroke-width="1" fill="none" fill-rule="evenodd">
        <g id="icon-shopping-cart" fill-rule="nonzero" fill="#000000">
            <g id="Filled_Icon">
                <path d="M0.5,0 L4,0 C4.232,0 4.434,0.16 4.487,0.386 L5.809,6 L23.5,6 C23.661,6 23.813,6.077 23.906,6.208 C23.999,6.339 24.025,6.507 23.974,6.659 L20.974,15.659 C20.906,15.862 20.716,16 20.5,16 L8.161,16 L8.396,17 L19,17 C20.104,17 21,17.898 21,19 C21,20.104 20.104,21 19,21 C17.897,21 17,20.104 17,19 C17,18.635 17.106,18.296 17.278,18 L9.723,18 C9.895,18.296 10,18.635 10,19 C10,20.104 9.104,21 8,21 C6.897,21 6,20.104 6,19 C6,18.11 6.588,17.363 7.394,17.104 L3.604,1 L0.5,1 C0.225,1 0,0.776 0,0.5 C0,0.224 0.225,0 0.5,0 Z" id="Shape"></path>
            </g>
        </g>
    </g>
</svg>