<?xml version="1.0" encoding="UTF-8"?>
<svg width="19px" height="24px" viewBox="0 0 19 24" version="1.1" xmlns="http://www.w3.org/2000/svg" xmlns:xlink="http://www.w3.org/1999/xlink">
    <!-- Generator: Sketch 42 (36781) - http://www.bohemiancoding.com/sketch -->
    <title>icon-address-5-outline</title>
    <desc>Created with Sketch.</desc>
    <defs></defs>
    <g id="Page-1" stroke="none" stroke-width="1" fill="none" fill-rule="evenodd">
        <g id="icon-address-5-outline" fill-rule="nonzero" fill="#000000">
            <g id="Outline_Icons">
                <g id="Group">
                    <path d="M9.5,0 C4.084,0 0,4.299 0,10 C0,17.173 8.832,23.634 9.207,23.905 C9.294,23.968 9.397,24 9.5,24 C9.603,24 9.706,23.968 9.793,23.905 C10.168,23.634 19,17.173 19,10 C19,4.299 14.916,0 9.5,0 Z M9.5,22.873 C7.972,21.689 1,15.961 1,10 C1,4.869 4.654,1 9.5,1 C14.346,1 18,4.869 18,10 C18,15.961 11.028,21.689 9.5,22.873 Z" id="Shape"></path>
                    <path d="M9.5,4 C6.467,4 4,6.467 4,9.5 C4,12.533 6.467,15 9.5,15 C12.533,15 15,12.533 15,9.5 C15,6.467 12.533,4 9.5,4 Z M9.5,14 C7.019,14 5,11.981 5,9.5 C5,7.019 7.019,5 9.5,5 C11.981,5 14,7.019 14,9.5 C14,11.981 11.981,14 9.5,14 Z" id="Shape"></path>
                </g>
            </g>
        </g>
    </g>
</svg>