<?xml version="1.0" encoding="UTF-8"?>
<svg width="24px" height="24px" viewBox="0 0 24 24" version="1.1" xmlns="http://www.w3.org/2000/svg" xmlns:xlink="http://www.w3.org/1999/xlink">
    <!-- Generator: Sketch 42 (36781) - http://www.bohemiancoding.com/sketch -->
    <title>icon-phone-6</title>
    <desc>Created with Sketch.</desc>
    <defs></defs>
    <g id="Page-1" stroke="none" stroke-width="1" fill="none" fill-rule="evenodd">
        <g id="icon-phone-6" fill-rule="nonzero" fill="#000000">
            <g id="Filled_Icons">
                <g id="Group">
                    <path d="M17.481,15.572 C17.492,15.368 17.425,15.182 17.293,15.051 L15.986,13.742 C15.83,13.587 15.64,13.554 15.507,13.554 C15.272,13.554 15.033,13.658 14.851,13.839 L14.367,14.323 C14.187,14.503 13.899,14.518 13.701,14.359 C12.217,13.17 10.805,11.757 9.618,10.275 C9.458,10.077 9.474,9.79 9.655,9.609 L10.138,9.125 C10.31,8.954 10.41,8.736 10.422,8.512 C10.433,8.308 10.366,8.123 10.235,7.991 L8.928,6.686 C8.772,6.529 8.582,6.497 8.449,6.497 C8.214,6.497 7.975,6.601 7.794,6.782 L6.997,7.579 C6.474,8.103 6.345,8.88 6.691,9.429 C8.68,12.581 11.398,15.3 14.551,17.288 C15.085,17.625 15.892,17.49 16.4,16.982 L16.69,16.693 C16.691,16.692 16.691,16.691 16.692,16.69 C16.693,16.689 16.694,16.688 16.695,16.688 L17.198,16.185 C17.369,16.014 17.469,15.796 17.481,15.572 Z" id="Shape"></path>
                    <path d="M12,0 C5.383,0 0,5.384 0,12 C0,18.616 5.383,24 12,24 C18.617,24 24,18.616 24,12 C24,5.384 18.617,0 12,0 Z M20.412,17.76 C20.256,17.988 19.944,18.045 19.717,17.889 C19.49,17.733 19.431,17.421 19.588,17.194 C20.642,15.659 21.199,13.859 21.199,11.99 C21.199,6.913 17.068,2.782 11.991,2.782 C6.913,2.782 2.783,6.913 2.783,11.99 C2.783,17.068 6.913,21.198 11.991,21.198 C14.379,21.198 15.965,20.581 16.578,19.413 C16.864,18.867 16.884,18.314 16.832,17.919 C16.369,18.274 15.81,18.482 15.244,18.482 C14.804,18.482 14.38,18.362 14.019,18.134 C10.741,16.066 7.915,13.24 5.847,9.962 C5.254,9.022 5.441,7.722 6.291,6.872 L7.088,6.075 C7.79,5.373 8.985,5.327 9.636,5.977 L10.943,7.286 C11.277,7.62 11.447,8.075 11.422,8.566 C11.397,9.038 11.193,9.487 10.846,9.834 L10.681,9.999 C11.666,11.183 12.795,12.312 13.98,13.298 L14.145,13.133 C14.846,12.433 16.041,12.386 16.693,13.036 L18,14.345 C18.335,14.679 18.505,15.134 18.479,15.624 C18.454,16.096 18.25,16.546 17.903,16.893 L17.661,17.135 C17.89,17.73 17.959,18.71 17.588,19.604 C17.098,20.788 15.729,22.198 11.988,22.198 C6.36,22.198 1.78,17.619 1.78,11.99 C1.78,6.361 6.361,1.781 11.989,1.781 C17.618,1.781 22.197,6.36 22.197,11.989 C22.198,14.062 21.58,16.057 20.412,17.76 Z" id="Shape"></path>
                </g>
            </g>
        </g>
    </g>
</svg>