<?xml version="1.0" encoding="UTF-8"?>
<svg width="24px" height="16px" viewBox="0 0 24 16" version="1.1" xmlns="http://www.w3.org/2000/svg" xmlns:xlink="http://www.w3.org/1999/xlink">
    <!-- Generator: Sketch 42 (36781) - http://www.bohemiancoding.com/sketch -->
    <title>icon-email-1</title>
    <desc>Created with Sketch.</desc>
    <defs></defs>
    <g id="Page-1" stroke="none" stroke-width="1" fill="none" fill-rule="evenodd">
        <g id="icon-email-1" fill-rule="nonzero" fill="#000000">
            <g id="Filled_Icons">
                <path d="M22,0 L2,0 C0.897,0 0,0.897 0,2 L0,14 C0,15.103 0.897,16 2,16 L22,16 C23.103,16 24,15.103 24,14 L24,2 C24,0.897 23.103,0 22,0 Z M7.248,10.434 L3.748,12.434 C3.67,12.479 3.584,12.5 3.5,12.5 C3.326,12.5 3.158,12.41 3.065,12.248 C2.928,12.009 3.011,11.703 3.251,11.566 L6.751,9.566 C6.991,9.429 7.296,9.512 7.433,9.752 C7.571,9.992 7.488,10.297 7.248,10.434 Z M12,10.5 C11.906,10.5 11.811,10.474 11.729,10.42 L3.229,4.92 C2.997,4.77 2.93,4.46 3.081,4.229 C3.231,3.999 3.54,3.931 3.772,4.082 L12,9.405 L20.229,4.081 C20.461,3.931 20.771,3.997 20.92,4.228 C21.07,4.46 21.003,4.77 20.772,4.919 L12.272,10.419 C12.189,10.474 12.095,10.5 12,10.5 Z M20.934,12.248 C20.842,12.41 20.673,12.5 20.5,12.5 C20.416,12.5 20.331,12.479 20.252,12.435 L16.752,10.435 C16.512,10.298 16.429,9.993 16.566,9.753 C16.703,9.513 17.009,9.431 17.248,9.567 L20.748,11.567 C20.988,11.703 21.071,12.009 20.934,12.248 Z" id="Shape"></path>
            </g>
        </g>
    </g>
</svg>