<?xml version="1.0" encoding="UTF-8"?>
<svg width="25px" height="24px" viewBox="0 0 25 24" version="1.1" xmlns="http://www.w3.org/2000/svg" xmlns:xlink="http://www.w3.org/1999/xlink">
    <!-- Generator: Sketch 42 (36781) - http://www.bohemiancoding.com/sketch -->
    <title>icon-shopping-bag-add</title>
    <desc>Created with Sketch.</desc>
    <defs></defs>
    <g id="Page-1" stroke="none" stroke-width="1" fill="none" fill-rule="evenodd">
        <g id="icon-shopping-bag-add" fill-rule="nonzero" fill="#000000">
            <g id="Outline_Icons">
                <g id="Group">
                    <path d="M14,10.5 C14,10.224 13.776,10 13.5,10 L10.5,10 C10.224,10 10,10.224 10,10.5 L10,14 L7,14 C6.802,14 6.623,14.117 6.543,14.298 C6.463,14.479 6.497,14.691 6.631,14.837 L11.643,20.337 C11.738,20.441 11.872,20.5 12.012,20.5 L12.013,20.5 C12.154,20.5 12.287,20.44 12.382,20.336 L17.37,14.836 C17.503,14.69 17.537,14.479 17.457,14.297 C17.377,14.117 17.198,14 17,14 L14,14 L14,10.5 Z M15.871,15 L12.011,19.257 L8.132,15 L10.5,15 C10.776,15 11,14.776 11,14.5 L11,11 L13,11 L13,14.5 C13,14.776 13.224,15 13.5,15 L15.871,15 Z" id="Shape"></path>
                    <path d="M23.846,7.154 L23.848,7.152 L21.723,5.152 C21.63,5.065 21.507,5.016 21.38,5.016 L18.005,5.016 L18.005,6.016 L21.182,6.016 L22.244,7.016 L17.005,7.016 L17.005,5.016 C17.005,2.259 14.762,0.016 12.005,0.016 C9.248,0.016 7.005,2.259 7.005,5.016 L7.005,7.016 L1.82,7.016 L2.945,6.016 L6.005,6.016 L6.005,5.016 L2.755,5.016 C2.633,5.016 2.515,5.061 2.423,5.142 L0.173,7.142 L0.176,7.145 C0.072,7.236 0.005,7.366 0.005,7.515 L0.005,22.515 C0.005,22.791 0.229,23.015 0.505,23.015 L23.505,23.015 C23.781,23.015 24.005,22.791 24.005,22.515 L24.005,7.515 C24.005,7.373 23.942,7.245 23.846,7.154 Z M8.005,5.016 C8.005,2.81 9.799,1.016 12.005,1.016 C14.211,1.016 16.005,2.81 16.005,5.016 L16.005,7.016 L8.005,7.016 L8.005,5.016 L8.005,5.016 Z M23.005,22.016 L1.005,22.016 L1.005,8.016 L7.505,8.016 L16.505,8.016 L23.005,8.016 L23.005,22.016 Z" id="Shape"></path>
                    <rect id="Rectangle-path" x="9.005" y="5.016" width="5.998" height="1"></rect>
                </g>
            </g>
        </g>
    </g>
</svg>