<?xml version="1.0" encoding="UTF-8"?>
<svg width="20px" height="22px" viewBox="0 0 20 22" version="1.1" xmlns="http://www.w3.org/2000/svg" xmlns:xlink="http://www.w3.org/1999/xlink">
    <!-- Generator: Sketch 42 (36781) - http://www.bohemiancoding.com/sketch -->
    <title>icon-user-3-outline</title>
    <desc>Created with Sketch.</desc>
    <defs></defs>
    <g id="Page-1" stroke="none" stroke-width="1" fill="none" fill-rule="evenodd">
        <g id="icon-user-3-outline" fill-rule="nonzero" fill="#000000">
            <g id="Outline_Icons">
                <path d="M17.677,16.318 L13,14.647 L13,12.342 C14.433,11.168 15.375,9.212 15.375,7 C15.375,3.416 12.908,0.5 9.875,0.5 C6.842,0.5 4.375,3.416 4.375,7 C4.375,9.338 5.428,11.385 7,12.531 L7,14.648 L2.322,16.319 C0.933,16.815 0,18.139 0,19.614 L0,21.5 C0,21.776 0.224,22 0.5,22 L19.5,22 C19.776,22 20,21.776 20,21.5 L20,19.614 C20,18.14 19.066,16.815 17.677,16.318 Z M9.875,1.5 C12.079,1.5 13.914,3.447 14.298,6.007 C14.291,6.008 14.287,6.008 14.28,6.009 C12.828,6.289 11.927,5.816 11.074,4.322 C10.984,4.163 10.842,4.089 10.63,4.07 C10.447,4.073 10.281,4.176 10.196,4.339 C9.736,5.224 8.183,6 6.875,6 C6.366,6 5.929,5.916 5.499,5.739 C5.967,3.313 7.749,1.5 9.875,1.5 Z M5.375,7 C5.375,6.919 5.382,6.84 5.385,6.76 C5.854,6.917 6.339,7 6.875,7 C8.249,7 9.756,6.347 10.61,5.45 C11.407,6.559 12.347,7.085 13.541,7.085 C13.805,7.085 14.085,7.051 14.375,7 C14.375,10.033 12.356,12.5 9.875,12.5 C7.394,12.5 5.375,10.033 5.375,7 Z M19,21 L1,21 L1,19.614 C1,18.56 1.667,17.614 2.659,17.26 L7.668,15.471 C7.867,15.4 8,15.211 8,15 L8,13.103 C8.586,13.355 9.216,13.5 9.875,13.5 C10.628,13.5 11.346,13.319 12,12.994 L12,15 C12,15.211 12.133,15.4 12.332,15.471 L17.34,17.26 C18.333,17.615 19,18.561 19,19.614 L19,21 Z" id="Shape"></path>
            </g>
        </g>
    </g>
</svg>