<?xml version="1.0" encoding="UTF-8"?>
<svg width="9px" height="18px" viewBox="0 0 9 18" version="1.1" xmlns="http://www.w3.org/2000/svg" xmlns:xlink="http://www.w3.org/1999/xlink">
    <!-- Generator: Sketch 42 (36781) - http://www.bohemiancoding.com/sketch -->
    <title>icon-address-1</title>
    <desc>Created with Sketch.</desc>
    <defs></defs>
    <g id="Page-1" stroke="none" stroke-width="1" fill="none" fill-rule="evenodd">
        <g id="icon-address-1" fill-rule="nonzero" fill="#000000">
            <g id="Filled_Icons">
                <path d="M4.5,0.006 C2.019,0.006 0,2.024 0,4.506 C0,6.818 1.753,8.727 4,8.976 L4,17.506 C4,17.781 4.224,18.006 4.5,18.006 C4.775,18.006 5,17.781 5,17.506 L5,8.976 C7.246,8.727 9,6.818 9,4.506 C9,2.024 6.981,0.006 4.5,0.006 Z M6.5,5.006 C6.224,5.006 6,4.781 6,4.506 C6,3.678 5.326,3.006 4.5,3.006 C4.224,3.006 4,2.781 4,2.506 C4,2.229 4.224,2.006 4.5,2.006 C5.878,2.006 7,3.127 7,4.506 C7,4.782 6.775,5.006 6.5,5.006 Z" id="Shape"></path>
            </g>
        </g>
    </g>
</svg>