<?xml version="1.0" encoding="UTF-8"?>
<svg width="24px" height="24px" viewBox="0 0 24 24" version="1.1" xmlns="http://www.w3.org/2000/svg" xmlns:xlink="http://www.w3.org/1999/xlink">
    <!-- Generator: Sketch 42 (36781) - http://www.bohemiancoding.com/sketch -->
    <title>icon-shopping-cart-add</title>
    <desc>Created with Sketch.</desc>
    <defs></defs>
    <g id="Page-1" stroke="none" stroke-width="1" fill="none" fill-rule="evenodd">
        <g id="icon-shopping-cart-add" fill-rule="nonzero" fill="#000000">
            <g id="Outline_Icons">
                <g id="Group">
                    <path d="M12,17 L8.396,17 L7.925,15 L11.974,15 C12.25,15 12.474,14.776 12.474,14.5 C12.474,14.224 12.25,14 11.974,14 L7.69,14 L6.043,7 L22.807,7 L21.51,10.889 C21.423,11.151 21.565,11.434 21.826,11.521 C21.879,11.539 21.931,11.547 21.984,11.547 C22.193,11.547 22.388,11.415 22.459,11.205 L23.975,6.658 C24.026,6.506 24,6.338 23.906,6.207 C23.812,6.077 23.661,6 23.5,6 L5.808,6 L4.486,0.385 C4.434,0.16 4.232,0 4,0 L0.5,0 C0.224,0 0,0.224 0,0.5 C0,0.776 0.224,1 0.5,1 L3.604,1 L7.394,17.104 C6.589,17.363 6,18.11 6,19 C6,20.103 6.897,21 8,21 C9.103,21 10,20.103 10,19 C10,18.634 9.895,18.295 9.722,18 L12,18 C12.276,18 12.5,17.776 12.5,17.5 C12.5,17.224 12.276,17 12,17 Z M9,19 C9,19.551 8.552,20 8,20 C7.448,20 7,19.551 7,19 C7,18.449 7.448,18 8,18 C8.552,18 9,18.449 9,19 Z" id="Shape"></path>
                    <path d="M18.5,13 C15.468,13 13,15.467 13,18.5 C13,21.533 15.468,24 18.5,24 C21.532,24 24,21.533 24,18.5 C24,15.467 21.532,13 18.5,13 Z M18.5,23 C16.019,23 14,20.981 14,18.5 C14,16.019 16.019,14 18.5,14 C20.981,14 23,16.019 23,18.5 C23,20.981 20.981,23 18.5,23 Z" id="Shape"></path>
                    <path d="M21,18 L19,18 L19,16 C19,15.724 18.776,15.5 18.5,15.5 C18.224,15.5 18,15.724 18,16 L18,18 L16,18 C15.724,18 15.5,18.224 15.5,18.5 C15.5,18.776 15.724,19 16,19 L18,19 L18,21 C18,21.276 18.224,21.5 18.5,21.5 C18.776,21.5 19,21.276 19,21 L19,19 L21,19 C21.276,19 21.5,18.776 21.5,18.5 C21.5,18.224 21.276,18 21,18 Z" id="Shape"></path>
                </g>
            </g>
        </g>
    </g>
</svg>