<?xml version="1.0" encoding="UTF-8"?>
<svg width="22px" height="22px" viewBox="0 0 22 22" version="1.1" xmlns="http://www.w3.org/2000/svg" xmlns:xlink="http://www.w3.org/1999/xlink">
    <!-- Generator: Sketch 42 (36781) - http://www.bohemiancoding.com/sketch -->
    <title>icon-user-5</title>
    <desc>Created with Sketch.</desc>
    <defs></defs>
    <g id="Page-1" stroke="none" stroke-width="1" fill="none" fill-rule="evenodd">
        <g id="icon-user-5" fill-rule="nonzero" fill="#000000">
            <g id="Filled_Icons">
                <path d="M11,0 C4.93441667,0 0,4.93441667 0,11 C0,13.915 1.12933333,16.66225 3.17991667,18.7348333 L3.17991667,18.73575 C5.26441667,20.8404167 8.041,22 11,22 C13.9645,22 16.7456667,20.8358333 18.8301667,18.72475 C20.8743333,16.6521667 22,13.9095 22,11 C22,4.93441667 17.0655833,0 11,0 Z M18.4204167,17.809 C17.4533333,17.2351667 16.0004167,16.7071667 14.4613333,16.1498333 C14.0781667,16.0114167 13.6858333,15.8684167 13.2925833,15.7235833 L13.2925833,14.0295833 C13.7518333,13.7463333 14.56125,13.0148333 14.6584167,11.3391667 C15.01225,11.1310833 15.2359167,10.6718333 15.2359167,10.0833333 C15.2359167,9.5535 15.0553333,9.12725 14.75925,8.89716667 C14.9810833,8.20325 15.3835,6.93091667 15.1121667,5.84741667 C14.7931667,4.576 13.068,4.125 11.6875,4.125 C10.4573333,4.125 8.954,4.48341667 8.41591667,5.45966667 C7.77058333,5.4285 7.41125,5.70991667 7.23341667,5.94641667 C6.65133333,6.71458333 7.03541667,8.11708333 7.25266667,8.88891667 C6.95108333,9.11716667 6.765,9.54708333 6.765,10.0833333 C6.765,10.67275 6.98866667,11.132 7.3425,11.3391667 C7.43966667,13.0148333 8.24908333,13.7463333 8.70833333,14.0295833 L8.70833333,15.7235833 C8.35541667,15.8555833 7.99333333,15.9866667 7.63033333,16.1186667 C6.14441667,16.65675 4.61633333,17.2131667 3.59058333,17.8209167 C1.87,15.9545833 0.916666667,13.5501667 0.916666667,11 C0.916666667,5.44041667 5.44041667,0.916666667 11,0.916666667 C16.5595833,0.916666667 21.0833333,5.44041667 21.0833333,11 C21.0833333,13.54375 20.1345833,15.9445 18.4204167,17.809 Z" id="Shape"></path>
            </g>
        </g>
    </g>
</svg>