<?xml version="1.0" encoding="UTF-8"?>
<svg width="24px" height="24px" viewBox="0 0 24 24" version="1.1" xmlns="http://www.w3.org/2000/svg" xmlns:xlink="http://www.w3.org/1999/xlink">
    <!-- Generator: Sketch 42 (36781) - http://www.bohemiancoding.com/sketch -->
    <title>icon-shopping-basket-2-outline</title>
    <desc>Created with Sketch.</desc>
    <defs></defs>
    <g id="Page-1" stroke="none" stroke-width="1" fill="none" fill-rule="evenodd">
        <g id="icon-shopping-basket-2-outline" fill-rule="nonzero" fill="#000000">
            <g id="Outline_Icons">
                <g id="Group">
                    <path d="M23.5,10 L22.901,10 L22.073,6.272 C21.414,3.307 18.912,1.219 15.919,1.035 C15.722,0.437 15.164,0 14.5,0 L9.5,0 C8.836,0 8.277,0.437 8.081,1.037 C5.129,1.227 2.575,3.357 1.927,6.273 L1.099,10 L0.5,10 C0.224,10 0,10.224 0,10.5 L0,12.5 C0,12.776 0.224,13 0.5,13 L1.082,13 L3.008,23.589 C3.052,23.827 3.259,24 3.5,24 L20.5,24 C20.741,24 20.948,23.827 20.992,23.589 L22.918,13 L23.5,13 C23.776,13 24,12.776 24,12.5 L24,10.5 C24,10.224 23.776,10 23.5,10 Z M9.5,1 L14.5,1 C14.775,1 15,1.224 15,1.5 C15,1.776 14.775,2 14.5,2 L9.5,2 C9.225,2 9,1.776 9,1.5 C9,1.224 9.225,1 9.5,1 Z M2.903,6.489 C3.452,4.019 5.606,2.213 8.102,2.034 C8.319,2.598 8.861,3 9.5,3 L14.5,3 C15.139,3 15.682,2.597 15.897,2.034 C18.428,2.207 20.538,3.979 21.096,6.49 L21.877,10 L2.123,10 L2.903,6.489 Z M20.083,23 L3.917,23 L2.099,13 L21.902,13 L20.083,23 Z M23,12 L22.5,12 L1.5,12 L1,12 L1,11 L1.5,11 L22.5,11 L23,11 L23,12 Z" id="Shape"></path>
                    <path d="M14.5,21 C14.776,21 15,20.776 15,20.5 L15,14.5 C15,14.224 14.776,14 14.5,14 C14.224,14 14,14.224 14,14.5 L14,20.5 C14,20.776 14.224,21 14.5,21 Z" id="Shape"></path>
                    <path d="M18.5,21 C18.776,21 19,20.776 19,20.5 L19,14.5 C19,14.224 18.776,14 18.5,14 C18.224,14 18,14.224 18,14.5 L18,20.5 C18,20.776 18.224,21 18.5,21 Z" id="Shape"></path>
                    <path d="M9.5,21 C9.776,21 10,20.776 10,20.5 L10,14.5 C10,14.224 9.776,14 9.5,14 C9.224,14 9,14.224 9,14.5 L9,20.5 C9,20.776 9.224,21 9.5,21 Z" id="Shape"></path>
                    <path d="M5.5,21 C5.776,21 6,20.776 6,20.5 L6,14.5 C6,14.224 5.776,14 5.5,14 C5.224,14 5,14.224 5,14.5 L5,20.5 C5,20.776 5.224,21 5.5,21 Z" id="Shape"></path>
                </g>
            </g>
        </g>
    </g>
</svg>