<?xml version="1.0" encoding="UTF-8"?>
<svg width="24px" height="23px" viewBox="0 0 24 23" version="1.1" xmlns="http://www.w3.org/2000/svg" xmlns:xlink="http://www.w3.org/1999/xlink">
    <!-- Generator: Sketch 42 (36781) - http://www.bohemiancoding.com/sketch -->
    <title>icon-shopping-cart-2-add</title>
    <desc>Created with Sketch.</desc>
    <defs></defs>
    <g id="Page-1" stroke="none" stroke-width="1" fill="none" fill-rule="evenodd">
        <g id="icon-shopping-cart-2-add" fill-rule="nonzero" fill="#000000">
            <g id="Outline_Icons">
                <g id="Group">
                    <path d="M12.4062993,12 C12.0766351,12.3055268 11.7743831,12.640244 11.5037014,13 L3.562,13 C2.682,13 1.915,12.436 1.653,11.596 L0.091,6.596 C-0.099,5.993 0.013,5.327 0.388,4.815 C0.764,4.305 1.366,4 2,4 L19.117,4 C19.369,4 19.582,3.812 19.613,3.561 L19.949,0.876 C20.011,0.377 20.437,0 20.941,0 L23.5,0 C23.776,0 24,0.224 24,0.5 C24,0.776 23.776,1 23.5,1 L20.941,1 L20.605,3.686 C20.513,4.435 19.872,5 19.117,5 L2,5 C1.683,5 1.382,5.152 1.193,5.407 C1.007,5.663 0.951,5.996 1.045,6.297 L2.608,11.298 C2.739,11.718 3.122,12 3.562,12 L12.4062993,12 Z M10.428439,15 L4,15 C3.724,15 3.5,14.776 3.5,14.5 C3.5,14.224 3.724,14 4,14 L10.8679778,14 C10.6982196,14.3203437 10.550997,14.6543856 10.428439,15 Z M19.003,6.32374469 C19.033,6.1237328 19.272,5.9819062 19.556,6.00227104 C19.83,6.02481784 20.027,6.20446487 19.997,6.40374944 L19.497,9.67667114 C19.469,9.86286402 19.252,10.0003267 19.001,10.0003267 C18.982,10.0003267 18.964,9.99959942 18.944,9.99814478 C18.67,9.97559799 18.473,9.79595095 18.503,9.59666639 L19.003,6.32374469 Z" id="Combined-Shape"></path>
                    <path d="M6,16 C4.897,16 4,16.897 4,18 C4,19.103 4.897,20 6,20 C7.103,20 8,19.103 8,18 C8,16.897 7.103,16 6,16 Z M6,19 C5.448,19 5,18.551 5,18 C5,17.449 5.448,17 6,17 C6.552,17 7,17.449 7,18 C7,18.551 6.552,19 6,19 Z" id="Shape"></path>
                    <path d="M17.5,12 C14.468,12 12,14.467 12,17.5 C12,20.533 14.468,23 17.5,23 C20.532,23 23,20.533 23,17.5 C23,14.467 20.532,12 17.5,12 Z M17.5,22 C15.019,22 13,19.981 13,17.5 C13,15.019 15.019,13 17.5,13 C19.981,13 22,15.019 22,17.5 C22,19.981 19.981,22 17.5,22 Z" id="Shape"></path>
                    <path d="M20,17 L18,17 L18,15 C18,14.724 17.776,14.5 17.5,14.5 C17.224,14.5 17,14.724 17,15 L17,17 L15,17 C14.724,17 14.5,17.224 14.5,17.5 C14.5,17.776 14.724,18 15,18 L17,18 L17,20 C17,20.276 17.224,20.5 17.5,20.5 C17.776,20.5 18,20.276 18,20 L18,18 L20,18 C20.276,18 20.5,17.776 20.5,17.5 C20.5,17.224 20.276,17 20,17 Z" id="Shape"></path>
                </g>
            </g>
        </g>
    </g>
</svg>