<?xml version="1.0" encoding="UTF-8"?>
<svg width="23px" height="23px" viewBox="0 0 23 23" version="1.1" xmlns="http://www.w3.org/2000/svg" xmlns:xlink="http://www.w3.org/1999/xlink">
    <!-- Generator: Sketch 42 (36781) - http://www.bohemiancoding.com/sketch -->
    <title>icon-phone-5-outline</title>
    <desc>Created with Sketch.</desc>
    <defs></defs>
    <g id="Page-1" stroke="none" stroke-width="1" fill="none" fill-rule="evenodd">
        <g id="icon-phone-5-outline" fill-rule="nonzero" fill="#000000">
            <g id="Outline_Icons">
                <path d="M22.176,16.516 L19.723,14.063 C18.662,13.001 16.808,12.999 15.744,14.063 L15.248,14.559 C12.814,12.528 10.476,10.189 8.442,7.752 L8.939,7.256 C10.035,6.158 10.035,4.374 8.939,3.278 L6.485,0.824 C5.423,-0.238 3.569,-0.238 2.506,0.824 L1.162,2.17 C-0.165,3.497 -0.376,5.598 0.66,7.164 C4.612,13.14 9.86,18.388 15.835,22.34 C16.487,22.772 17.245,22.999 18.026,22.999 C19.087,22.999 20.082,22.587 20.83,21.839 L22.176,20.493 C22.707,19.962 23,19.256 23,18.504 C23,17.753 22.707,17.046 22.176,16.516 Z M21.469,19.786 L20.123,21.132 C19.152,22.104 17.539,22.266 16.387,21.506 C10.523,17.627 5.373,12.478 1.494,6.613 C0.719,5.44 0.877,3.869 1.869,2.877 L3.214,1.531 C3.556,1.188 4.012,1 4.496,1 C4.98,1 5.436,1.188 5.778,1.531 L8.232,3.985 C8.939,4.691 8.938,5.841 8.232,6.548 L7.414,7.366 C7.232,7.548 7.218,7.838 7.381,8.036 C9.616,10.765 12.238,13.388 14.964,15.62 C15.163,15.783 15.452,15.767 15.634,15.587 L16.451,14.77 C17.137,14.084 18.331,14.084 19.015,14.77 L21.468,17.223 C21.811,17.564 22,18.02 22,18.504 C22,18.988 21.811,19.443 21.469,19.786 Z" id="Shape"></path>
            </g>
        </g>
    </g>
</svg>