<?xml version="1.0" encoding="UTF-8"?>
<svg width="24px" height="11px" viewBox="0 0 24 11" version="1.1" xmlns="http://www.w3.org/2000/svg" xmlns:xlink="http://www.w3.org/1999/xlink">
    <!-- Generator: Sketch 42 (36781) - http://www.bohemiancoding.com/sketch -->
    <title>icon-email-4-outline</title>
    <desc>Created with Sketch.</desc>
    <defs></defs>
    <g id="Page-1" stroke="none" stroke-width="1" fill="none" fill-rule="evenodd">
        <g id="icon-email-4-outline" fill-rule="nonzero" fill="#000000">
            <g id="Outline_Icons">
                <g id="Group">
                    <path d="M23.758,0.621 C23.491,0.226 23.027,0 22.484,0 L10.484,0 C9.454,0 8.327,0.797 7.919,1.814 L5.119,8.814 C4.89,9.387 4.923,9.957 5.209,10.379 C5.477,10.774 5.941,11 6.484,11 L18.484,11 C19.514,11 20.641,10.203 21.048,9.186 L23.848,2.186 C24.077,1.614 24.044,1.043 23.758,0.621 Z M22.919,1.814 L20.119,8.814 C19.867,9.446 19.103,10 18.484,10 L6.484,10 C6.336,10 6.139,9.969 6.037,9.819 C5.94,9.675 5.944,9.445 6.048,9.186 L8.848,2.186 C9.105,1.543 9.854,1 10.484,1 L22.484,1 C22.631,1 22.828,1.031 22.93,1.181 C23.027,1.324 23.023,1.555 22.919,1.814 Z" id="Shape"></path>
                    <path d="M20.938,2.064 L14.173,5.875 L10.541,2.15 C10.348,1.952 10.032,1.95 9.834,2.141 C9.637,2.335 9.633,2.651 9.826,2.849 L13.726,6.849 C13.823,6.948 13.953,7 14.084,7 C14.168,7 14.252,6.979 14.33,6.936 L21.43,2.936 C21.67,2.801 21.756,2.496 21.62,2.255 C21.483,2.015 21.179,1.928 20.938,2.064 Z" id="Shape"></path>
                    <path d="M10.793,6.093 L7.293,8.593 C7.068,8.754 7.016,9.066 7.177,9.29 C7.275,9.427 7.428,9.5 7.584,9.5 C7.685,9.5 7.786,9.47 7.874,9.407 L11.374,6.907 C11.599,6.747 11.651,6.434 11.49,6.21 C11.329,5.986 11.018,5.933 10.793,6.093 Z" id="Shape"></path>
                    <path d="M17.513,6.243 C17.371,6.007 17.064,5.93 16.827,6.072 C16.59,6.215 16.514,6.521 16.656,6.758 L18.156,9.258 C18.25,9.414 18.415,9.501 18.585,9.501 C18.672,9.501 18.761,9.479 18.842,9.43 C19.079,9.288 19.155,8.981 19.013,8.744 L17.513,6.243 Z" id="Shape"></path>
                    <path d="M0.5,1 L5.5,1 C5.776,1 6,0.776 6,0.5 C6,0.224 5.776,0 5.5,0 L0.5,0 C0.224,0 0,0.224 0,0.5 C0,0.776 0.224,1 0.5,1 Z" id="Shape"></path>
                    <path d="M2.5,9 L0.5,9 C0.224,9 0,9.224 0,9.5 C0,9.776 0.224,10 0.5,10 L2.5,10 C2.776,10 3,9.776 3,9.5 C3,9.224 2.776,9 2.5,9 Z" id="Shape"></path>
                    <path d="M3.5,4 L0.5,4 C0.224,4 0,4.224 0,4.5 C0,4.776 0.224,5 0.5,5 L3.5,5 C3.776,5 4,4.776 4,4.5 C4,4.224 3.776,4 3.5,4 Z" id="Shape"></path>
                </g>
            </g>
        </g>
    </g>
</svg>