<?xml version="1.0" encoding="UTF-8"?>
<svg width="22px" height="22px" viewBox="0 0 22 22" version="1.1" xmlns="http://www.w3.org/2000/svg" xmlns:xlink="http://www.w3.org/1999/xlink">
    <!-- Generator: Sketch 42 (36781) - http://www.bohemiancoding.com/sketch -->
    <title>icon-user-2-outline</title>
    <desc>Created with Sketch.</desc>
    <defs></defs>
    <g id="Page-1" stroke="none" stroke-width="1" fill="none" fill-rule="evenodd">
        <g id="icon-user-2-outline" fill-rule="nonzero" fill="#000000">
            <g id="Outline_Icons">
                <path d="M21.03475,17.6174167 C20.361,16.2708333 18.062,15.42475 14.88025,14.2550833 C14.5135833,14.1203333 14.1359167,13.981 13.75,13.8370833 L13.75,11.6288333 C14.1524167,11.2869167 15.0131667,10.395 15.1149167,8.93933333 C15.323,8.76333333 15.4861667,8.45991667 15.5815,8.0575 C15.7345833,7.41125 15.6575833,6.644 15.2001667,6.18933333 C15.2249167,6.127 15.25425,6.0555 15.2854167,5.97666667 C15.6365,5.09116667 16.291,3.44208333 16.0325,2.14775 C15.7153333,0.562833333 13.4630833,0 11.62975,0 C10.2070833,0 8.48008333,0.358416667 7.93558333,1.33925 C7.38833333,1.40066667 6.96575,1.62708333 6.677,2.01575 C5.88133333,3.08916667 6.45883333,4.99675 6.76958333,6.02066667 C6.78608333,6.07658333 6.80166667,6.12883333 6.81633333,6.17375 C6.34425,6.62658333 6.26358333,7.40391667 6.4185,8.05841667 C6.51383333,8.46083333 6.677,8.76425 6.88508333,8.94025 C6.98683333,10.3959167 7.84758333,11.2878333 8.25,11.62975 L8.25,13.838 C7.86408333,13.9819167 7.48641667,14.12125 7.11791667,14.256 C3.93616667,15.4256667 1.63716667,16.27175 0.96525,17.6174167 C0.011,19.5259167 0,21.4600833 0,21.5416667 C0,21.7946667 0.205333333,22 0.458333333,22 L21.5416667,22 C21.7946667,22 22,21.7946667 22,21.5416667 C22,21.4600833 21.989,19.5259167 21.03475,17.6174167 Z M0.944166667,21.0833333 C1.00375,20.4398333 1.19166667,19.21425 1.78475,18.0280833 C2.29533333,17.0069167 4.67683333,16.1305833 7.43416667,15.11675 C7.89708333,14.94625 8.37741667,14.77025 8.86875,14.5850833 C9.04841667,14.5181667 9.16666667,14.34675 9.16666667,14.1560833 L9.16666667,11.4060833 C9.16666667,11.253 9.09058333,11.11 8.96225,11.02475 C8.95125,11.0174167 7.79166667,10.2254167 7.79166667,8.65608333 C7.79166667,8.44433333 7.64866667,8.2665 7.45341667,8.21333333 C7.35808333,8.0795 7.21691667,7.64958333 7.2765,7.238 C7.31041667,6.99966667 7.39841667,6.84383333 7.53866667,6.77416667 C7.69358333,6.69625 7.79166667,6.53766667 7.79166667,6.36441667 C7.79166667,6.23975 7.75408333,6.11141667 7.64683333,5.75483333 C7.42041667,5.00958333 6.8915,3.26516667 7.41308333,2.56116667 C7.57441667,2.34483333 7.8485,2.23941667 8.25,2.23941667 C8.45991667,2.23941667 8.64325,2.09641667 8.69458333,1.892 C8.81466667,1.41258333 9.94491667,0.916666667 11.62975,0.916666667 C13.2311667,0.916666667 14.949,1.40158333 15.1341667,2.32925 C15.3395,3.35775 14.7500833,4.84183333 14.4338333,5.64025 C14.2743333,6.04083333 14.2083333,6.20675 14.2083333,6.36441667 C14.2083333,6.53766667 14.3064167,6.69625 14.4613333,6.77416667 C14.6006667,6.84383333 14.6895833,6.99966667 14.7235,7.23708333 C14.7830833,7.64958333 14.6419167,8.0795 14.5465833,8.21241667 C14.3513333,8.2665 14.2083333,8.44433333 14.2083333,8.65608333 C14.2083333,10.208 13.0835833,10.9935833 13.03775,11.02475 C12.9094167,11.11 12.8333333,11.253 12.8333333,11.4060833 L12.8333333,14.1560833 C12.8333333,14.34675 12.9515833,14.5181667 13.1303333,14.5850833 C13.6216667,14.7693333 14.1010833,14.9453333 14.5630833,15.1158333 C17.3213333,16.1296667 19.7028333,17.006 20.2143333,18.0280833 C20.8083333,19.21425 20.99625,20.4398333 21.0558333,21.0833333 L0.944166667,21.0833333 Z" id="Shape"></path>
            </g>
        </g>
    </g>
</svg>