<?xml version="1.0" encoding="UTF-8"?>
<svg width="24px" height="24px" viewBox="0 0 24 24" version="1.1" xmlns="http://www.w3.org/2000/svg" xmlns:xlink="http://www.w3.org/1999/xlink">
    <!-- Generator: Sketch 42 (36781) - http://www.bohemiancoding.com/sketch -->
    <title>icon-shopping-basket-2-add</title>
    <desc>Created with Sketch.</desc>
    <defs></defs>
    <g id="Page-1" stroke="none" stroke-width="1" fill="none" fill-rule="evenodd">
        <g id="icon-shopping-basket-2-add" fill-rule="nonzero" fill="#000000">
            <g id="Outline_Icons">
                <g id="Group">
                    <path d="M23.5,10 L22.901,10 L22.073,6.272 C21.414,3.307 18.912,1.219 15.919,1.035 C15.722,0.437 15.164,0 14.5,0 L9.5,0 C8.836,0 8.277,0.437 8.081,1.037 C5.129,1.227 2.575,3.357 1.927,6.273 L1.099,10 L0.5,10 C0.224,10 0,10.224 0,10.5 L0,12.5 C0,12.776 0.224,13 0.5,13 L1.082,13 L3.008,23.589 C3.052,23.827 3.259,24 3.5,24 L20.5,24 C20.741,24 20.948,23.827 20.992,23.589 L22.918,13 L23.5,13 C23.776,13 24,12.776 24,12.5 L24,10.5 C24,10.224 23.776,10 23.5,10 Z M9.5,1 L14.5,1 C14.775,1 15,1.224 15,1.5 C15,1.776 14.775,2 14.5,2 L9.5,2 C9.225,2 9,1.776 9,1.5 C9,1.224 9.225,1 9.5,1 Z M2.903,6.489 C3.452,4.019 5.606,2.213 8.102,2.034 C8.319,2.598 8.861,3 9.5,3 L14.5,3 C15.139,3 15.682,2.597 15.897,2.034 C18.428,2.207 20.538,3.979 21.096,6.49 L21.877,10 L2.123,10 L2.903,6.489 Z M20.083,23 L3.917,23 L2.099,13 L21.902,13 L20.083,23 Z M23,12 L22.5,12 L1.5,12 L1,12 L1,11 L1.5,11 L22.5,11 L23,11 L23,12 Z" id="Shape"></path>
                    <path d="M13.4545938,14.3809524 C13.4545938,14.1706667 13.2916774,14 13.0909411,14 L10.9090252,14 C10.7082889,14 10.5453725,14.1706667 10.5453725,14.3809524 L10.5453725,17.047619 L8.36345662,17.047619 C8.21945017,17.047619 8.08926252,17.1367619 8.0310781,17.2746667 C7.97289367,17.4125714 7.99762205,17.5740952 8.09508096,17.6853333 L11.7403352,21.8758095 C11.8094292,21.9550476 11.9068881,22 12.0087108,22 L12.0094381,22 C12.1119882,22 12.2087198,21.9542857 12.2778138,21.8750476 L15.9056127,17.6845714 C16.0023443,17.5733333 16.0270727,17.4125714 15.9688882,17.2739048 C15.9107038,17.1367619 15.7805162,17.047619 15.6365097,17.047619 L13.4545938,17.047619 L13.4545938,14.3809524 Z M14.815382,17.8095238 L12.0079835,21.0529524 L9.18676623,17.8095238 L10.9090252,17.8095238 C11.1097615,17.8095238 11.2726779,17.6388571 11.2726779,17.4285714 L11.2726779,14.7619048 L12.7272885,14.7619048 L12.7272885,17.4285714 C12.7272885,17.6388571 12.8902049,17.8095238 13.0909411,17.8095238 L14.815382,17.8095238 Z" id="Shape"></path>
                </g>
            </g>
        </g>
    </g>
</svg>