<?xml version="1.0" encoding="UTF-8"?>
<svg width="24px" height="11px" viewBox="0 0 24 11" version="1.1" xmlns="http://www.w3.org/2000/svg" xmlns:xlink="http://www.w3.org/1999/xlink">
    <!-- Generator: Sketch 42 (36781) - http://www.bohemiancoding.com/sketch -->
    <title>icon-email-4</title>
    <desc>Created with Sketch.</desc>
    <defs></defs>
    <g id="Page-1" stroke="none" stroke-width="1" fill="none" fill-rule="evenodd">
        <g id="icon-email-4" fill-rule="nonzero" fill="#000000">
            <g id="Filled_Icons">
                <g id="Group">
                    <path d="M23.759,0.621 C23.492,0.226 23.028,0 22.485,0 L10.485,0 C9.455,0 8.328,0.797 7.921,1.814 L5.121,8.814 C4.892,9.386 4.925,9.957 5.21,10.379 C5.478,10.774 5.942,11 6.485,11 L18.485,11 C19.516,11 20.642,10.203 21.05,9.186 L23.849,2.186 C24.078,1.615 24.045,1.043 23.759,0.621 Z M11.375,6.907 L7.875,9.407 C7.788,9.47 7.686,9.5 7.585,9.5 C7.429,9.5 7.275,9.427 7.178,9.291 C7.018,9.066 7.07,8.754 7.294,8.593 L10.794,6.093 C11.019,5.933 11.331,5.985 11.492,6.209 C11.653,6.433 11.601,6.747 11.375,6.907 Z M18.842,9.429 C18.762,9.478 18.673,9.5 18.585,9.5 C18.415,9.5 18.25,9.414 18.156,9.257 L16.656,6.757 C16.513,6.52 16.591,6.214 16.827,6.071 C17.064,5.929 17.371,6.006 17.514,6.242 L19.014,8.742 C19.156,8.979 19.079,9.287 18.842,9.429 Z M21.43,2.936 L14.331,6.936 C14.254,6.979 14.169,7 14.085,7 C13.954,7 13.823,6.948 13.727,6.849 L9.827,2.849 C9.634,2.651 9.638,2.335 9.835,2.142 C10.032,1.949 10.35,1.954 10.542,2.151 L14.174,5.876 L20.939,2.064 C21.179,1.928 21.484,2.014 21.62,2.254 C21.756,2.494 21.671,2.8 21.43,2.936 Z" id="Shape"></path>
                    <path d="M0.501,1 L5.501,1 C5.777,1 6.001,0.776 6.001,0.5 C6.001,0.224 5.777,0 5.501,0 L0.501,0 C0.225,0 0.001,0.224 0.001,0.5 C0.001,0.776 0.225,1 0.501,1 Z" id="Shape"></path>
                    <path d="M2.501,9 L0.501,9 C0.225,9 0.001,9.224 0.001,9.5 C0.001,9.776 0.225,10 0.501,10 L2.501,10 C2.777,10 3.001,9.776 3.001,9.5 C3.001,9.224 2.777,9 2.501,9 Z" id="Shape"></path>
                    <path d="M3.501,4 L0.501,4 C0.225,4 0.001,4.224 0.001,4.5 C0.001,4.776 0.225,5 0.501,5 L3.501,5 C3.777,5 4.001,4.776 4.001,4.5 C4.001,4.224 3.777,4 3.501,4 Z" id="Shape"></path>
                </g>
            </g>
        </g>
    </g>
</svg>