<?xml version="1.0" encoding="UTF-8"?>
<svg width="24px" height="24px" viewBox="0 0 24 24" version="1.1" xmlns="http://www.w3.org/2000/svg" xmlns:xlink="http://www.w3.org/1999/xlink">
    <!-- Generator: Sketch 42 (36781) - http://www.bohemiancoding.com/sketch -->
    <title>icon-email-2</title>
    <desc>Created with Sketch.</desc>
    <defs></defs>
    <g id="Page-1" stroke="none" stroke-width="1" fill="none" fill-rule="evenodd">
        <g id="icon-email-2" fill-rule="nonzero" fill="#000000">
            <g id="Filled_Icons">
                <g id="Group">
                    <path d="M12,2 C9.243,2 7,4.243 7,7 C7,9.757 9.243,12 12,12 C13.02,12 13.997,11.699 14.826,11.13 C15.054,10.974 15.111,10.663 14.955,10.435 C14.799,10.207 14.489,10.15 14.26,10.306 C13.598,10.76 12.817,11 12,11 C9.794,11 8,9.206 8,7 C8,4.794 9.794,3 12,3 C14.206,3 16,4.794 16,7 L16,7.392 C16,7.871 15.61,8.261 15.131,8.261 C14.651,8.261 14.261,7.871 14.261,7.392 L14.261,7 C14.261,5.754 13.247,4.739 12,4.739 C10.753,4.739 9.739,5.754 9.739,7 C9.739,8.247 10.753,9.261 12,9.261 C12.656,9.261 13.243,8.976 13.656,8.528 C13.998,8.971 14.529,9.261 15.131,9.261 C16.162,9.261 17,8.423 17,7.392 L17,7 C17,4.243 14.757,2 12,2 Z M12,8.261 C11.305,8.261 10.739,7.696 10.739,7 C10.739,6.304 11.305,5.739 12,5.739 C12.695,5.739 13.261,6.305 13.261,7 C13.261,7.695 12.695,8.261 12,8.261 Z" id="Shape"></path>
                    <path d="M17.777,15.916 C17.692,15.973 17.596,16 17.5,16 C17.338,16 17.18,15.922 17.083,15.777 C16.93,15.547 16.992,15.237 17.222,15.084 L23.504,10.896 L20,8.487 L20,0.5 C20,0.224 19.776,0 19.5,0 L4.5,0 C4.224,0 4,0.224 4,0.5 L4,8.487 L0.496,10.897 L6.778,15.085 C7.008,15.238 7.07,15.548 6.917,15.778 C6.82,15.922 6.661,16 6.5,16 C6.405,16 6.309,15.973 6.223,15.916 L0,11.768 L0,22 C0,23.103 0.897,24 2,24 L22,24 C23.103,24 24,23.103 24,22 L24,11.768 L17.777,15.916 Z M5,13 L5,1 L19,1 L19,13 L5,13 Z M20.891,20.813 C20.792,20.936 20.646,21 20.5,21 C20.391,21 20.28,20.965 20.188,20.891 L15.325,17 L8.675,17 L3.812,20.891 C3.596,21.064 3.282,21.027 3.109,20.813 C2.937,20.597 2.972,20.283 3.187,20.11 L8.187,16.11 C8.276,16.039 8.386,16 8.5,16 L15.5,16 C15.614,16 15.724,16.039 15.813,16.109 L20.813,20.109 C21.028,20.282 21.063,20.597 20.891,20.813 Z" id="Shape"></path>
                </g>
            </g>
        </g>
    </g>
</svg>