<?xml version="1.0" encoding="UTF-8"?>
<svg width="24px" height="24px" viewBox="0 0 24 24" version="1.1" xmlns="http://www.w3.org/2000/svg" xmlns:xlink="http://www.w3.org/1999/xlink">
    <!-- Generator: Sketch 42 (36781) - http://www.bohemiancoding.com/sketch -->
    <title>icon-shopping-basket-2</title>
    <desc>Created with Sketch.</desc>
    <defs></defs>
    <g id="Page-1" stroke="none" stroke-width="1" fill="none" fill-rule="evenodd">
        <g id="icon-shopping-basket-2" fill-rule="nonzero" fill="#000000">
            <g id="Filled_Icon">
                <path d="M23.5,10 L22.9,10 L22.072,6.272 C21.412,3.303 18.91,1.197 15.913,1.017 C15.711,0.428 15.156,0 14.5,0 L9.5,0 C8.842,0 8.288,0.428 8.086,1.018 C5.088,1.198 2.586,3.304 1.926,6.273 L1.099,10 L0.5,10 C0.224,10 0,10.224 0,10.5 L0,12.5 C0,12.776 0.224,13 0.5,13 L1.082,13 L3.008,23.59 C3.051,23.827 3.258,24 3.5,24 L20.5,24 C20.741,24 20.948,23.827 20.991,23.59 L22.917,13 L23.5,13 C23.775,13 24,12.776 24,12.5 L24,10.5 C24,10.224 23.775,10 23.5,10 Z M2.902,6.489 C3.461,3.979 5.566,2.19 8.097,2.018 C8.309,2.59 8.855,3 9.5,3 L14.5,3 C15.145,3 15.69,2.59 15.902,2.018 C18.431,2.191 20.538,3.979 21.096,6.49 L21.876,10 L2.123,10 L2.902,6.489 Z M6,20.5 C6,20.776 5.775,21 5.5,21 C5.224,21 5,20.776 5,20.5 L5,14.5 C5,14.224 5.224,14 5.5,14 C5.775,14 6,14.224 6,14.5 L6,20.5 Z M10,20.5 C10,20.776 9.775,21 9.5,21 C9.224,21 9,20.776 9,20.5 L9,14.5 C9,14.224 9.224,14 9.5,14 C9.775,14 10,14.224 10,14.5 L10,20.5 Z M15,20.5 C15,20.776 14.775,21 14.5,21 C14.224,21 14,20.776 14,20.5 L14,14.5 C14,14.224 14.224,14 14.5,14 C14.775,14 15,14.224 15,14.5 L15,20.5 Z M19,20.5 C19,20.776 18.775,21 18.5,21 C18.224,21 18,20.776 18,20.5 L18,14.5 C18,14.224 18.224,14 18.5,14 C18.775,14 19,14.224 19,14.5 L19,20.5 Z M23,12 L22.5,12 L1.5,12 L1,12 L1,11 L1.5,11 L22.5,11 L23,11 L23,12 Z" id="Shape"></path>
            </g>
        </g>
    </g>
</svg>