<?xml version="1.0" encoding="UTF-8"?>
<svg width="24px" height="20px" viewBox="0 0 24 20" version="1.1" xmlns="http://www.w3.org/2000/svg" xmlns:xlink="http://www.w3.org/1999/xlink">
    <!-- Generator: Sketch 42 (36781) - http://www.bohemiancoding.com/sketch -->
    <title>icon-shopping-cart-2-outline</title>
    <desc>Created with Sketch.</desc>
    <defs></defs>
    <g id="Page-1" stroke="none" stroke-width="1" fill="none" fill-rule="evenodd">
        <g id="icon-shopping-cart-2-outline" fill-rule="nonzero" fill="#000000">
            <g id="Outline_Icons">
                <g id="Group">
                    <path d="M23.5,0 L20.941,0 C20.437,0 20.011,0.377 19.949,0.876 L19.613,3.561 C19.582,3.812 19.369,4 19.117,4 L2,4 C1.366,4 0.764,4.305 0.388,4.815 C0.013,5.327 -0.099,5.993 0.091,6.596 L1.653,11.596 C1.915,12.436 2.682,13 3.562,13 L18,13 C18.275,13 18.5,13.224 18.5,13.5 C18.5,13.776 18.275,14 18,14 L4,14 C3.724,14 3.5,14.224 3.5,14.5 C3.5,14.776 3.724,15 4,15 L18,15 C18.827,15 19.5,14.327 19.5,13.5 C19.5,12.673 18.827,12 18,12 L3.562,12 C3.122,12 2.739,11.718 2.608,11.298 L1.045,6.297 C0.951,5.996 1.007,5.663 1.193,5.407 C1.382,5.152 1.683,5 2,5 L19.117,5 C19.872,5 20.513,4.435 20.605,3.686 L20.941,1 L23.5,1 C23.776,1 24,0.776 24,0.5 C24,0.224 23.776,0 23.5,0 Z" id="Shape"></path>
                    <path d="M19.003,6.445 L18.503,10.945 C18.473,11.219 18.67,11.466 18.944,11.497 C18.964,11.499 18.982,11.5 19.001,11.5 C19.252,11.5 19.469,11.311 19.497,11.055 L19.997,6.555 C20.027,6.281 19.83,6.034 19.556,6.003 C19.272,5.975 19.033,6.17 19.003,6.445 Z" id="Shape"></path>
                    <path d="M6,16 C4.897,16 4,16.897 4,18 C4,19.103 4.897,20 6,20 C7.103,20 8,19.103 8,18 C8,16.897 7.103,16 6,16 Z M6,19 C5.448,19 5,18.551 5,18 C5,17.449 5.448,17 6,17 C6.552,17 7,17.449 7,18 C7,18.551 6.552,19 6,19 Z" id="Shape"></path>
                    <path d="M17,16 C15.897,16 15,16.897 15,18 C15,19.103 15.897,20 17,20 C18.103,20 19,19.103 19,18 C19,16.897 18.103,16 17,16 Z M17,19 C16.448,19 16,18.551 16,18 C16,17.449 16.448,17 17,17 C17.552,17 18,17.449 18,18 C18,18.551 17.552,19 17,19 Z" id="Shape"></path>
                </g>
            </g>
        </g>
    </g>
</svg>