<?xml version="1.0" encoding="UTF-8"?>
<svg width="15px" height="24px" viewBox="0 0 15 24" version="1.1" xmlns="http://www.w3.org/2000/svg" xmlns:xlink="http://www.w3.org/1999/xlink">
    <!-- Generator: Sketch 42 (36781) - http://www.bohemiancoding.com/sketch -->
    <title>icon-address-2</title>
    <desc>Created with Sketch.</desc>
    <defs></defs>
    <g id="Page-1" stroke="none" stroke-width="1" fill="none" fill-rule="evenodd">
        <g id="icon-address-2" fill-rule="nonzero" fill="#000000">
            <g id="Filled_Icons">
                <path d="M7.5,0.006 C2.985,0.006 0.5,2.492 0.5,7.006 C0.5,9.475 2.268,12.123 3.977,14.685 C5.531,17.016 7,19.216 7,21.006 L7,23.506 C7,23.781 7.224,24.006 7.5,24.006 C7.775,24.006 8,23.781 8,23.506 L8,21.006 C8,19.216 9.468,17.016 11.022,14.685 C12.731,12.123 14.5,9.475 14.5,7.006 C14.5,2.492 12.014,0.006 7.5,0.006 Z M7.5,11.006 C5.294,11.006 3.5,9.211 3.5,7.006 C3.5,4.8 5.294,3.006 7.5,3.006 C9.705,3.006 11.5,4.8 11.5,7.006 C11.5,9.211 9.705,11.006 7.5,11.006 Z" id="Shape"></path>
            </g>
        </g>
    </g>
</svg>