<?xml version="1.0" encoding="UTF-8"?>
<svg width="24px" height="24px" viewBox="0 0 24 24" version="1.1" xmlns="http://www.w3.org/2000/svg" xmlns:xlink="http://www.w3.org/1999/xlink">
    <!-- Generator: Sketch 42 (36781) - http://www.bohemiancoding.com/sketch -->
    <title>icon-shopping-bag-3-add</title>
    <desc>Created with Sketch.</desc>
    <defs></defs>
    <g id="Page-1" stroke="none" stroke-width="1" fill="none" fill-rule="evenodd">
        <g id="icon-shopping-bag-3-add" fill-rule="nonzero" fill="#000000">
            <g id="Outline_Icons">
                <path d="M23.5,4 L19,4 L19,2.5 C19,1.122 17.879,0 16.5,0 L13.5,0 C12.121,0 11,1.122 11,2.5 L11,4 L8,4 L8,2.5 C8,1.673 8.673,1 9.5,1 L10.5,1 C10.776,1 11,0.776 11,0.5 C11,0.224 10.776,0 10.5,0 L9.5,0 C8.121,0 7,1.122 7,2.5 L7,4 L0.5,4 C0.224,4 0,4.224 0,4.5 L0,23.5 C0,23.776 0.224,24 0.5,24 L7.5,24 L23.5,24 C23.776,24 24,23.776 24,23.5 L24,4.5 C24,4.224 23.776,4 23.5,4 Z M12,2.5 C12,1.673 12.673,1 13.5,1 L16.5,1 C17.327,1 18,1.673 18,2.5 L18,4 L12,4 L12,2.5 Z M1,5 L3,5 L3,19.835 L1.688,21.147 C1.493,21.342 1.493,21.659 1.688,21.854 C1.883,22.049 2.2,22.049 2.395,21.854 L3.541,20.708 L4.687,21.854 C4.786,21.951 4.914,22 5.042,22 C5.17,22 5.298,21.951 5.396,21.854 C5.591,21.659 5.591,21.342 5.396,21.147 L4,19.751 L4,5 L7,5 L7,23 L1,23 L1,5 Z M23,23 L8,23 L8,5 L23,5 L23,23 Z" id="Shape"></path>
                <path d="M17,9.5 C17,9.224 16.776,9 16.5,9 L13.5,9 C13.224,9 13,9.224 13,9.5 L13,13 L10,13 C9.802,13 9.623,13.117 9.543,13.298 C9.463,13.479 9.497,13.691 9.631,13.837 L14.643,19.337 C14.738,19.441 14.872,19.5 15.012,19.5 L15.013,19.5 C15.154,19.5 15.287,19.44 15.382,19.336 L20.37,13.836 C20.503,13.69 20.537,13.479 20.457,13.297 C20.377,13.117 20.198,13 20,13 L17,13 L17,9.5 Z M18.871,14 L15.011,18.257 L11.132,14 L13.5,14 C13.776,14 14,13.776 14,13.5 L14,10 L16,10 L16,13.5 C16,13.776 16.224,14 16.5,14 L18.871,14 Z" id="Shape"></path>
            </g>
        </g>
    </g>
</svg>