<?xml version="1.0" encoding="UTF-8"?>
<svg width="22px" height="22px" viewBox="0 0 22 22" version="1.1" xmlns="http://www.w3.org/2000/svg" xmlns:xlink="http://www.w3.org/1999/xlink">
    <!-- Generator: Sketch 42 (36781) - http://www.bohemiancoding.com/sketch -->
    <title>icon-user-2</title>
    <desc>Created with Sketch.</desc>
    <defs></defs>
    <g id="Page-1" stroke="none" stroke-width="1" fill="none" fill-rule="evenodd">
        <g id="icon-user-2" fill-rule="nonzero" fill="#000000">
            <g id="Filled_Icons">
                <path d="M21.03475,17.76016 C20.361,16.46744 18.062,15.65608 14.88025,14.53232 C14.5135833,14.40296 14.135,14.27008 13.75,14.13104 L13.75,12.012 C14.1524167,11.68376 15.0131667,10.82752 15.1149167,9.43008 C15.323,9.26112 15.4861667,8.96896 15.5815,8.58264 C15.7345833,7.96224 15.6575833,7.22656 15.2010833,6.79008 C15.2276667,6.72584 15.257,6.65368 15.2845,6.58592 C15.6365,5.73584 16.291,4.15272 16.0315833,2.91016 C15.7144167,1.38776 13.46125,0.84656 11.6279167,0.84656 C10.2061667,0.84656 8.47825,1.19064 7.93466667,2.13224 C7.38833333,2.1912 6.96575,2.40944 6.677,2.78256 C5.88041667,3.81304 6.45883333,5.64432 6.76958333,6.62816 C6.78516667,6.67656 6.80166667,6.72848 6.81633333,6.77512 C6.34333333,7.20896 6.26358333,7.9552 6.4185,8.58352 C6.51383333,8.96984 6.677,9.262 6.88508333,9.43096 C6.98683333,10.8284 7.84758333,11.68376 8.25,12.012 L8.25,14.13104 C7.86408333,14.2692 7.48641667,14.40296 7.11883333,14.53232 C3.93708333,15.6552 1.63808333,16.46744 0.96525,17.75928 C0.011,19.59232 0,21.44912 0,21.52744 C0,21.77032 0.205333333,21.96744 0.458333333,21.96744 L21.5416667,21.96744 C21.7946667,21.96744 22,21.77032 22,21.52744 C22,21.44912 21.989,19.59232 21.03475,17.76016 Z" id="Shape"></path>
            </g>
        </g>
    </g>
</svg>