<?xml version="1.0" encoding="UTF-8"?>
<svg width="24px" height="24px" viewBox="0 0 24 24" version="1.1" xmlns="http://www.w3.org/2000/svg" xmlns:xlink="http://www.w3.org/1999/xlink">
    <!-- Generator: Sketch 42 (36781) - http://www.bohemiancoding.com/sketch -->
    <title>icon-shopping-bag-3</title>
    <desc>Created with Sketch.</desc>
    <defs></defs>
    <g id="Page-1" stroke="none" stroke-width="1" fill="none" fill-rule="evenodd">
        <g id="icon-shopping-bag-3" fill-rule="nonzero" fill="#000000">
            <g id="Filled_Icon">
                <path d="M19,4 L19,2.5 C19,1.122 17.878,0 16.5,0 L13.5,0 C12.121,0 11,1.122 11,2.5 L11,4 L8,4 L8,2.5 C8,1.673 8.672,1 9.5,1 L10.5,1 C10.775,1 11,0.776 11,0.5 C11,0.224 10.775,0 10.5,0 L9.5,0 C8.121,0 7,1.122 7,2.5 L7,4 L0,4 L0,24 L24,24 L24,4 L19,4 Z M7,23 L1,23 L1,5 L3,5 L3,19.793 L1.646,21.147 C1.451,21.342 1.451,21.659 1.646,21.854 C1.841,22.049 2.158,22.049 2.353,21.854 L3.5,20.706 L4.647,21.853 C4.744,21.951 4.871,22 5,22 C5.127,22 5.256,21.951 5.353,21.854 C5.548,21.659 5.548,21.342 5.353,21.147 L4,19.793 L4,5 L7,5 L7,23 Z M18,4 L12,4 L12,2.5 C12,1.673 12.672,1 13.5,1 L16.5,1 C17.326,1 18,1.673 18,2.5 L18,4 Z" id="Shape"></path>
            </g>
        </g>
    </g>
</svg>