<?xml version="1.0" encoding="UTF-8"?>
<svg width="24px" height="24px" viewBox="0 0 24 24" version="1.1" xmlns="http://www.w3.org/2000/svg" xmlns:xlink="http://www.w3.org/1999/xlink">
    <!-- Generator: Sketch 42 (36781) - http://www.bohemiancoding.com/sketch -->
    <title>icon-email-3</title>
    <desc>Created with Sketch.</desc>
    <defs></defs>
    <g id="Page-1" stroke="none" stroke-width="1" fill="none" fill-rule="evenodd">
        <g id="icon-email-3" fill-rule="nonzero" fill="#000000">
            <g id="Filled_Icons">
                <g id="Group">
                    <path d="M12,0 C5.383,0 0,5.383 0,12 C0,18.617 5.383,24 12,24 C18.617,24 24,18.617 24,12 C24,5.383 18.617,0 12,0 Z M20,16 C20,17.103 19.103,18 18,18 L6,18 C4.897,18 4,17.103 4,16 L4,8 C4,6.897 4.897,6 6,6 L18,6 C19.103,6 20,6.897 20,8 L20,16 Z" id="Shape"></path>
                    <path d="M17.887,8.184 C17.712,7.97 17.397,7.939 17.183,8.114 L12,12.354 L6.817,8.113 C6.603,7.938 6.288,7.97 6.113,8.184 C5.938,8.398 5.97,8.712 6.183,8.887 L9.801,11.847 L6.235,14.076 C6.001,14.223 5.929,14.531 6.076,14.765 C6.171,14.917 6.334,15 6.5,15 C6.591,15 6.682,14.976 6.765,14.924 L10.619,12.515 L11.683,13.387 C11.775,13.462 11.888,13.5 12,13.5 C12.112,13.5 12.225,13.462 12.317,13.387 L13.382,12.515 L17.236,14.924 C17.317,14.976 17.409,15 17.5,15 C17.667,15 17.83,14.917 17.925,14.765 C18.071,14.531 18,14.223 17.766,14.076 L14.2,11.847 L17.818,8.887 C18.03,8.712 18.062,8.397 17.887,8.184 Z" id="Shape"></path>
                </g>
            </g>
        </g>
    </g>
</svg>