<?xml version="1.0" encoding="UTF-8"?>
<svg width="24px" height="24px" viewBox="0 0 24 24" version="1.1" xmlns="http://www.w3.org/2000/svg" xmlns:xlink="http://www.w3.org/1999/xlink">
    <!-- Generator: Sketch 42 (36781) - http://www.bohemiancoding.com/sketch -->
    <title>icon-shopping-basket-checkout</title>
    <desc>Created with Sketch.</desc>
    <defs></defs>
    <g id="Page-1" stroke="none" stroke-width="1" fill="none" fill-rule="evenodd">
        <g id="icon-shopping-basket-checkout" fill-rule="nonzero" fill="#000000">
            <g id="Filled_Icon">
                <g id="Group">
                    <g id="Shape">
                        <g transform="translate(3.000000, 0.000000)">
                            <path d="M0.5,6 C0.357,6 0.215,5.939 0.116,5.82 C-0.061,5.608 -0.032,5.292 0.18,5.116 L6.18,0.116 C6.391,-0.06 6.706,-0.034 6.884,0.18 C7.061,0.392 7.032,0.708 6.821,0.885 L0.821,5.885 C0.727,5.962 0.613,6 0.5,6 Z"></path>
                            <path d="M14.5,6 C14.387,6 14.273,5.962 14.18,5.885 L8.18,0.885 C7.968,0.708 7.94,0.392 8.117,0.18 C8.295,-0.032 8.609,-0.059 8.821,0.116 L14.821,5.116 C15.033,5.293 15.061,5.608 14.884,5.821 C14.785,5.939 14.643,6 14.5,6 Z"></path>
                        </g>
                        <path d="M12,18.5 C12,14.916 14.916,12 18.5,12 C18.825,12 19.142,12.032 19.454,12.078 L19.903,10 L20.5,10 C20.776,10 21,9.776 21,9.5 L21,7.5 C21,7.224 20.776,7 20.5,7 L0.5,7 C0.224,7 0,7.224 0,7.5 L0,9.5 C0,9.776 0.224,10 0.5,10 L1.099,10 L3.012,18.608 C3.063,18.838 3.266,19 3.5,19 L12.025,19 C12.013,18.834 12,18.669 12,18.5 Z M1.5,9 L1,9 L1,8 L20,8 L20,9 L19.5,9 L1.5,9 Z"></path>
                    </g>
                    <path d="M18.5,13 C15.468,13 13,15.467 13,18.5 C13,21.533 15.468,24 18.5,24 C21.532,24 24,21.533 24,18.5 C24,15.467 21.532,13 18.5,13 Z M21.353,17.355 L18.328,20.355 C18.234,20.448 18.107,20.5 17.975,20.5 C17.832,20.51 17.713,20.446 17.619,20.352 L15.644,18.348 C15.451,18.151 15.453,17.833 15.65,17.64 C15.845,17.447 16.164,17.448 16.357,17.644 L17.979,19.292 L20.648,16.645 C20.845,16.452 21.161,16.453 21.356,16.648 C21.55,16.844 21.548,17.161 21.353,17.355 Z" id="Shape"></path>
                </g>
            </g>
        </g>
    </g>
</svg>