<?xml version="1.0" encoding="UTF-8"?>
<svg width="24px" height="20px" viewBox="0 0 24 20" version="1.1" xmlns="http://www.w3.org/2000/svg" xmlns:xlink="http://www.w3.org/1999/xlink">
    <!-- Generator: Sketch 42 (36781) - http://www.bohemiancoding.com/sketch -->
    <title>icon-phone-4-outline</title>
    <desc>Created with Sketch.</desc>
    <defs></defs>
    <g id="Page-1" stroke="none" stroke-width="1" fill="none" fill-rule="evenodd">
        <g id="icon-phone-4-outline" fill-rule="nonzero" fill="#000000">
            <g id="Outline_Icons">
                <g id="Group">
                    <path d="M21.1,0.919 C15.107,-0.3 8.89,-0.299 2.9,0.919 C1.247,1.257 0,2.719 0,4.319 L0,6.5 C0,7.928 1.168,9.181 2.5,9.181 L5.5,9.181 C6.832,9.181 8,7.928 8,6.5 L8,5.274 C10.633,5.042 13.367,5.042 16,5.274 L16,6.5 C16,7.928 17.168,9.181 18.5,9.181 L21.5,9.181 C22.832,9.181 24,7.928 24,6.5 L24,4.319 C24,2.719 22.753,1.257 21.1,0.919 Z M23,6.5 C23,7.364 22.271,8.181 21.5,8.181 L18.5,8.181 C17.729,8.181 17,7.365 17,6.5 L17,4.819 C17,4.562 16.805,4.346 16.549,4.322 C15.057,4.174 13.527,4.098 12.001,4.098 C10.474,4.098 8.943,4.173 7.451,4.322 C7.195,4.347 7,4.562 7,4.819 L7,6.5 C7,7.364 6.271,8.181 5.5,8.181 L2.5,8.181 C1.729,8.181 1,7.364 1,6.5 L1,4.319 C1,3.184 1.903,2.143 3.1,1.899 C8.959,0.706 15.039,0.706 20.9,1.899 C22.097,2.143 23,3.184 23,4.319 L23,6.5 L23,6.5 Z" id="Shape"></path>
                    <path d="M18,17.5 C18,18.327 17.327,19 16.5,19 L6.5,19 C5.673,19 5,18.327 5,17.5 L5,10 L4,10 L4,17.5 C4,18.879 5.122,20 6.5,20 L16.5,20 C17.878,20 19,18.879 19,17.5 L19,10 L18,10 L18,17.5 Z" id="Shape"></path>
                    <rect id="Rectangle-path" x="8" y="11" width="1" height="1"></rect>
                    <rect id="Rectangle-path" x="11" y="11" width="1" height="1"></rect>
                    <rect id="Rectangle-path" x="14" y="11" width="1" height="1"></rect>
                    <rect id="Rectangle-path" x="8" y="13" width="1" height="1"></rect>
                    <rect id="Rectangle-path" x="11" y="13" width="1" height="1"></rect>
                    <rect id="Rectangle-path" x="14" y="13" width="1" height="1"></rect>
                    <rect id="Rectangle-path" x="8" y="15" width="1" height="1"></rect>
                    <rect id="Rectangle-path" x="11" y="15" width="1" height="1"></rect>
                    <rect id="Rectangle-path" x="14" y="15" width="1" height="1"></rect>
                </g>
            </g>
        </g>
    </g>
</svg>