<?xml version="1.0" encoding="UTF-8"?>
<svg width="15px" height="24px" viewBox="0 0 15 24" version="1.1" xmlns="http://www.w3.org/2000/svg" xmlns:xlink="http://www.w3.org/1999/xlink">
    <!-- Generator: Sketch 42 (36781) - http://www.bohemiancoding.com/sketch -->
    <title>icon-phone-3-outline</title>
    <desc>Created with Sketch.</desc>
    <defs></defs>
    <g id="Page-1" stroke="none" stroke-width="1" fill="none" fill-rule="evenodd">
        <g id="icon-phone-3-outline" fill-rule="nonzero" fill="#000000">
            <g id="Outline_Icons">
                <g id="Group">
                    <path d="M10.5,0 L4.5,0 C2.019,0 0,2.019 0,4.5 L0,20.5 C0,22.43 1.57,24 3.5,24 L11.5,24 C13.43,24 15,22.43 15,20.5 L15,4.5 C15,2.019 12.981,0 10.5,0 Z M14,20.5 C14,21.879 12.878,23 11.5,23 L3.5,23 C2.122,23 1,21.879 1,20.5 L1,4.5 C1,2.57 2.57,1 4.5,1 L10.5,1 C12.43,1 14,2.57 14,4.5 L14,20.5 Z" id="Shape"></path>
                    <path d="M12.5,4 L2.5,4 C2.224,4 2,4.224 2,4.5 L2,13.5 C2,13.776 2.224,14 2.5,14 L12.5,14 C12.776,14 13,13.776 13,13.5 L13,4.5 C13,4.224 12.776,4 12.5,4 Z M12,13 L3,13 L3,5 L12,5 L12,13 Z" id="Shape"></path>
                    <path d="M5.5,3 L9.5,3 C9.776,3 10,2.776 10,2.5 C10,2.224 9.776,2 9.5,2 L5.5,2 C5.224,2 5,2.224 5,2.5 C5,2.776 5.224,3 5.5,3 Z" id="Shape"></path>
                    <rect id="Rectangle-path" x="4" y="16" width="1" height="1"></rect>
                    <rect id="Rectangle-path" x="7" y="16" width="1" height="1"></rect>
                    <rect id="Rectangle-path" x="10" y="16" width="1" height="1"></rect>
                    <rect id="Rectangle-path" x="4" y="18" width="1" height="1"></rect>
                    <rect id="Rectangle-path" x="7" y="18" width="1" height="1"></rect>
                    <rect id="Rectangle-path" x="10" y="18" width="1" height="1"></rect>
                    <rect id="Rectangle-path" x="4" y="20" width="1" height="1"></rect>
                    <rect id="Rectangle-path" x="7" y="20" width="1" height="1"></rect>
                    <rect id="Rectangle-path" x="10" y="20" width="1" height="1"></rect>
                </g>
            </g>
        </g>
    </g>
</svg>