<?xml version="1.0" encoding="UTF-8"?>
<svg width="19px" height="24px" viewBox="0 0 19 24" version="1.1" xmlns="http://www.w3.org/2000/svg" xmlns:xlink="http://www.w3.org/1999/xlink">
    <!-- Generator: Sketch 42 (36781) - http://www.bohemiancoding.com/sketch -->
    <title>icon-address-4</title>
    <desc>Created with Sketch.</desc>
    <defs></defs>
    <g id="Page-1" stroke="none" stroke-width="1" fill="none" fill-rule="evenodd">
        <g id="icon-address-4" fill-rule="nonzero" fill="#000000">
            <g id="Filled_Icons">
                <path d="M9.5,0.006 C4.537,0.006 0.5,4.044 0.5,9.006 C0.5,13.13 3.356,16.756 7.332,17.74 L9.019,23.643 C9.08,23.857 9.277,24.006 9.5,24.006 C9.723,24.006 9.919,23.858 9.981,23.643 L11.667,17.74 C15.645,16.756 18.5,13.13 18.5,9.006 C18.5,4.044 14.462,0.006 9.5,0.006 Z M9.5,15.006 C6.191,15.006 3.5,12.314 3.5,9.006 C3.5,5.698 6.191,3.006 9.5,3.006 C12.809,3.006 15.5,5.698 15.5,9.006 C15.5,12.314 12.809,15.006 9.5,15.006 Z" id="Shape"></path>
            </g>
        </g>
    </g>
</svg>