<?xml version="1.0" encoding="UTF-8"?>
<svg width="24px" height="23px" viewBox="0 0 24 23" version="1.1" xmlns="http://www.w3.org/2000/svg" xmlns:xlink="http://www.w3.org/1999/xlink">
    <!-- Generator: Sketch 42 (36781) - http://www.bohemiancoding.com/sketch -->
    <title>icon-shopping-cart-2-checkout</title>
    <desc>Created with Sketch.</desc>
    <defs></defs>
    <g id="Page-1" stroke="none" stroke-width="1" fill="none" fill-rule="evenodd">
        <g id="icon-shopping-cart-2-checkout" fill-rule="nonzero" fill="#000000">
            <g id="Filled_Icon">
                <g id="Group">
                    <circle id="Oval" cx="6" cy="18" r="2"></circle>
                    <path d="M19.7385097,11.3973113 L20.605,3.685 L20.941,1 L23.5,1 C23.775,1 24,0.776 24,0.5 C24,0.224 23.775,0 23.5,0 L20.941,0 C20.438,0 20.011,0.377 19.948,0.877 L19.613,3.563 C19.582,3.812 19.368,4 19.117,4 L2,4 C1.367,4 0.764,4.305 0.388,4.815 C0.012,5.327 -0.098,5.993 0.091,6.595 L1.654,11.595 C1.915,12.436 2.682,13 3.563,13 L12.8139649,13 C13.9976574,11.7678899 15.6610521,11 17.5,11 C18.2861773,11 19.0402689,11.1403463 19.7385097,11.3973113 Z M11.5000161,15 L4,15 C3.724,15 3.5,14.776 3.5,14.5 C3.5,14.224 3.724,14 4,14 L12.0249793,14 C11.8223758,14.3158009 11.6463278,14.6501928 11.5000161,15 Z" id="Combined-Shape"></path>
                    <path d="M17.5,12 C14.468,12 12,14.467 12,17.5 C12,20.533 14.468,23 17.5,23 C20.532,23 23,20.533 23,17.5 C23,14.467 20.532,12 17.5,12 Z M20.353,16.355 L17.328,19.355 C17.234,19.448 17.107,19.5 16.975,19.5 C16.832,19.51 16.713,19.446 16.619,19.352 L14.644,17.348 C14.451,17.151 14.453,16.833 14.65,16.64 C14.845,16.447 15.164,16.448 15.357,16.644 L16.979,18.292 L19.648,15.645 C19.845,15.451 20.161,15.453 20.356,15.648 C20.55,15.844 20.548,16.161 20.353,16.355 Z" id="Shape"></path>
                </g>
            </g>
        </g>
    </g>
</svg>