<?xml version="1.0" encoding="UTF-8"?>
<svg width="20px" height="22px" viewBox="0 0 20 22" version="1.1" xmlns="http://www.w3.org/2000/svg" xmlns:xlink="http://www.w3.org/1999/xlink">
    <!-- Generator: Sketch 42 (36781) - http://www.bohemiancoding.com/sketch -->
    <title>icon-user-3</title>
    <desc>Created with Sketch.</desc>
    <defs></defs>
    <g id="Page-1" stroke="none" stroke-width="1" fill="none" fill-rule="evenodd">
        <g id="icon-user-3" fill-rule="nonzero" fill="#000000">
            <g id="Filled_Icons">
                <g id="Group">
                    <path d="M17.677,16.35 L13,14.679 L13,12.374 C14.433,11.199 15.375,9.244 15.375,7.031 C15.375,6.96 15.368,6.889 15.366,6.818 C15.055,6.932 14.709,7.031 14.375,7.031 C12.72,7.031 11.576,6.766 10.614,5.477 C9.76,6.375 8.252,7.031 6.875,7.031 C6.226,7.031 5.153,6.615 4.415,6.283 C4.391,6.529 4.375,6.778 4.375,7.031 C4.375,9.369 5.428,11.416 7,12.561 L7,14.679 L2.322,16.349 C0.933,16.846 0,18.17 0,19.646 L0,22 L20,22 L20,19.646 C20,18.17 19.066,16.846 17.677,16.35 Z" id="Shape"></path>
                    <path d="M10.197,4.371 L10.62,3.56 L11.074,4.354 C11.895,5.79 12.756,6.032 14.375,6.032 C14.634,6.032 14.988,5.902 15.271,5.785 C14.777,2.796 12.546,0.532 9.875,0.532 C7.361,0.532 5.241,2.538 4.587,5.265 C5.357,5.629 6.427,6.032 6.875,6.032 C8.183,6.031 9.736,5.255 10.197,4.371 Z" id="Shape"></path>
                </g>
            </g>
        </g>
    </g>
</svg>