<?xml version="1.0" encoding="UTF-8"?>
<svg width="24px" height="24px" viewBox="0 0 24 24" version="1.1" xmlns="http://www.w3.org/2000/svg" xmlns:xlink="http://www.w3.org/1999/xlink">
    <!-- Generator: Sketch 42 (36781) - http://www.bohemiancoding.com/sketch -->
    <title>icon-email-2-outline</title>
    <desc>Created with Sketch.</desc>
    <defs></defs>
    <g id="Page-1" stroke="none" stroke-width="1" fill="none" fill-rule="evenodd">
        <g id="icon-email-2-outline" fill-rule="nonzero" fill="#000000">
            <g id="Outline_Icons">
                <g id="Group">
                    <path d="M23.991,11.464 C23.987,11.414 23.974,11.366 23.955,11.318 C23.946,11.295 23.94,11.272 23.927,11.251 C23.922,11.242 23.922,11.232 23.916,11.224 C23.885,11.177 23.844,11.143 23.802,11.11 C23.795,11.104 23.791,11.094 23.783,11.089 L23.775,11.084 L23.775,11.084 L20,8.487 L20,0.5 C20,0.224 19.776,0 19.5,0 L4.5,0 C4.224,0 4,0.224 4,0.5 L4,8.487 L0.226,11.082 C0.225,11.082 0.224,11.083 0.223,11.084 L0.217,11.088 C0.21,11.093 0.208,11.1 0.202,11.104 C0.158,11.137 0.116,11.174 0.084,11.222 C0.078,11.231 0.078,11.241 0.073,11.249 C0.06,11.27 0.054,11.293 0.045,11.316 C0.025,11.365 0.013,11.413 0.009,11.462 C0.008,11.477 0,11.487 0,11.5 L0,22 C0,23.103 0.897,24 2,24 L22,24 C23.103,24 24,23.103 24,22 L24,11.5 C24,11.487 23.992,11.477 23.991,11.464 Z M22.608,11.494 L20,13.232 L20,9.701 L22.608,11.494 Z M4,13.232 L1.392,11.493 L4,9.701 L4,13.232 Z M22,23 L2,23 C1.449,23 1,22.551 1,22 L1,12.435 L6.223,15.916 C6.308,15.973 6.404,16 6.5,16 C6.662,16 6.82,15.922 6.917,15.777 C7.07,15.547 7.008,15.237 6.778,15.084 L5,13.899 L5,1 L19,1 L19,13.899 L17.223,15.084 C16.993,15.237 16.931,15.547 17.084,15.777 C17.18,15.922 17.339,16 17.5,16 C17.595,16 17.691,15.973 17.777,15.916 L23,12.435 L23,22 C23,22.551 22.551,23 22,23 Z" id="Shape"></path>
                    <path d="M15.812,16.109 C15.724,16.039 15.614,16 15.5,16 L8.5,16 C8.386,16 8.276,16.039 8.188,16.109 L3.188,20.109 C2.973,20.282 2.938,20.596 3.11,20.812 C3.283,21.027 3.597,21.063 3.813,20.89 L8.675,17 L15.324,17 L20.187,20.891 C20.28,20.965 20.39,21 20.5,21 C20.647,21 20.792,20.936 20.891,20.812 C21.063,20.596 21.028,20.282 20.813,20.109 L15.812,16.109 Z" id="Shape"></path>
                    <path d="M12,13 C13.02,13 13.997,12.699 14.826,12.13 C15.054,11.974 15.111,11.663 14.955,11.435 C14.799,11.208 14.489,11.15 14.26,11.306 C13.598,11.76 12.817,12 12,12 C9.794,12 8,10.206 8,8 C8,5.794 9.794,4 12,4 C14.206,4 16,5.794 16,8 L16,8.392 C16,8.871 15.61,9.261 15.131,9.261 C14.651,9.261 14.261,8.871 14.261,8.392 L14.261,8 C14.261,6.754 13.247,5.739 12,5.739 C10.753,5.739 9.739,6.754 9.739,8 C9.739,9.247 10.753,10.261 12,10.261 C12.656,10.261 13.243,9.976 13.656,9.528 C13.998,9.971 14.529,10.261 15.131,10.261 C16.162,10.261 17,9.423 17,8.392 L17,8 C17,5.243 14.757,3 12,3 C9.243,3 7,5.243 7,8 C7,10.757 9.243,13 12,13 Z M12,9.261 C11.305,9.261 10.739,8.696 10.739,8 C10.739,7.304 11.305,6.739 12,6.739 C12.695,6.739 13.261,7.305 13.261,8 C13.261,8.695 12.695,9.261 12,9.261 Z" id="Shape"></path>
                </g>
            </g>
        </g>
    </g>
</svg>