<?xml version="1.0" encoding="UTF-8"?>
<svg width="19px" height="24px" viewBox="0 0 19 24" version="1.1" xmlns="http://www.w3.org/2000/svg" xmlns:xlink="http://www.w3.org/1999/xlink">
    <!-- Generator: Sketch 42 (36781) - http://www.bohemiancoding.com/sketch -->
    <title>icon-address-4-outline</title>
    <desc>Created with Sketch.</desc>
    <defs></defs>
    <g id="Page-1" stroke="none" stroke-width="1" fill="none" fill-rule="evenodd">
        <g id="icon-address-4-outline" fill-rule="nonzero" fill="#000000">
            <g id="Outline_Icons">
                <g id="Group">
                    <path d="M9.5,0 C4.538,0 0.5,4.038 0.5,9 C0.5,13.125 3.355,16.75 7.333,17.735 L9.02,23.637 C9.081,23.852 9.277,24 9.5,24 C9.723,24 9.919,23.852 9.981,23.637 L11.668,17.735 C15.645,16.75 18.5,13.125 18.5,9 C18.5,4.038 14.462,0 9.5,0 Z M11.164,16.825 C10.983,16.864 10.838,16.999 10.787,17.177 L9.5,21.68 L8.213,17.177 C8.162,16.999 8.017,16.864 7.836,16.825 C4.165,16.048 1.5,12.757 1.5,9 C1.5,4.589 5.089,1 9.5,1 C13.911,1 17.5,4.589 17.5,9 C17.5,12.757 14.835,16.048 11.164,16.825 Z" id="Shape"></path>
                    <path d="M9.5,3 C6.191,3 3.5,5.691 3.5,9 C3.5,12.309 6.191,15 9.5,15 C12.809,15 15.5,12.309 15.5,9 C15.5,5.691 12.809,3 9.5,3 Z M9.5,14 C6.743,14 4.5,11.757 4.5,9 C4.5,6.243 6.743,4 9.5,4 C12.257,4 14.5,6.243 14.5,9 C14.5,11.757 12.257,14 9.5,14 Z" id="Shape"></path>
                </g>
            </g>
        </g>
    </g>
</svg>