<?xml version="1.0" encoding="UTF-8"?>
<svg width="15px" height="24px" viewBox="0 0 15 24" version="1.1" xmlns="http://www.w3.org/2000/svg" xmlns:xlink="http://www.w3.org/1999/xlink">
    <!-- Generator: Sketch 42 (36781) - http://www.bohemiancoding.com/sketch -->
    <title>icon-phone-3</title>
    <desc>Created with Sketch.</desc>
    <defs></defs>
    <g id="Page-1" stroke="none" stroke-width="1" fill="none" fill-rule="evenodd">
        <g id="icon-phone-3" fill-rule="nonzero" fill="#000000">
            <g id="Filled_Icons">
                <path d="M10.5,0 L4.5,0 C2.019,0 0,2.019 0,4.5 L0,20.5 C0,22.43 1.57,24 3.5,24 L11.5,24 C13.43,24 15,22.43 15,20.5 L15,4.5 C15,2.019 12.981,0 10.5,0 Z M5.5,2 L9.5,2 C9.776,2 10,2.224 10,2.5 C10,2.776 9.776,3 9.5,3 L5.5,3 C5.224,3 5,2.776 5,2.5 C5,2.224 5.224,2 5.5,2 Z M5,21 L4,21 L4,20 L5,20 L5,21 Z M5,19 L4,19 L4,18 L5,18 L5,19 Z M5,17 L4,17 L4,16 L5,16 L5,17 Z M8,21 L7,21 L7,20 L8,20 L8,21 Z M8,19 L7,19 L7,18 L8,18 L8,19 Z M8,17 L7,17 L7,16 L8,16 L8,17 Z M11,21 L10,21 L10,20 L11,20 L11,21 Z M11,19 L10,19 L10,18 L11,18 L11,19 Z M11,17 L10,17 L10,16 L11,16 L11,17 Z M13,13.5 C13,13.776 12.776,14 12.5,14 L2.5,14 C2.224,14 2,13.776 2,13.5 L2,4.5 C2,4.224 2.224,4 2.5,4 L12.5,4 C12.776,4 13,4.224 13,4.5 L13,13.5 Z" id="Shape"></path>
            </g>
        </g>
    </g>
</svg>