<?xml version="1.0" encoding="UTF-8"?>
<svg width="24px" height="22px" viewBox="0 0 24 22" version="1.1" xmlns="http://www.w3.org/2000/svg" xmlns:xlink="http://www.w3.org/1999/xlink">
    <!-- Generator: Sketch 42 (36781) - http://www.bohemiancoding.com/sketch -->
    <title>icon-shopping-basket</title>
    <desc>Created with Sketch.</desc>
    <defs></defs>
    <g id="Page-1" stroke="none" stroke-width="1" fill="none" fill-rule="evenodd">
        <g id="icon-shopping-basket" fill-rule="nonzero" fill="#000000">
            <g id="Filled_Icon">
                <g id="Group">
                    <path d="M23.5,8 L0.5,8 C0.224,8 0,8.224 0,8.5 L0,10.5 C0,10.776 0.224,11 0.5,11 L1.082,11 L3.008,21.59 C3.051,21.827 3.258,22 3.5,22 L20.5,22 C20.741,22 20.948,21.827 20.991,21.59 L22.917,11 L23.5,11 C23.775,11 24,10.776 24,10.5 L24,8.5 C24,8.224 23.775,8 23.5,8 Z M23,10 L22.5,10 L1.5,10 L1,10 L1,9 L23,9 L23,10 Z" id="Shape"></path>
                    <path d="M3.5,7 C3.627,7 3.756,6.951 3.854,6.854 L9.854,0.854 C10.049,0.659 10.049,0.342 9.854,0.147 C9.659,-0.048 9.342,-0.048 9.147,0.147 L3.147,6.147 C2.952,6.342 2.952,6.659 3.147,6.854 C3.244,6.951 3.371,7 3.5,7 Z" id="Shape"></path>
                    <path d="M20.146,6.854 C20.244,6.951 20.371,7 20.5,7 C20.627,7 20.756,6.951 20.854,6.854 C21.049,6.659 21.049,6.342 20.854,6.147 L14.854,0.147 C14.659,-0.048 14.342,-0.048 14.147,0.147 C13.952,0.342 13.952,0.659 14.147,0.854 L20.146,6.854 Z" id="Shape"></path>
                </g>
            </g>
        </g>
    </g>
</svg>