<?xml version="1.0" encoding="UTF-8"?>
<svg width="24px" height="24px" viewBox="0 0 24 24" version="1.1" xmlns="http://www.w3.org/2000/svg" xmlns:xlink="http://www.w3.org/1999/xlink">
    <!-- Generator: Sketch 42 (36781) - http://www.bohemiancoding.com/sketch -->
    <title>icon-star-circle-outline</title>
    <desc>Created with Sketch.</desc>
    <defs></defs>
    <g id="Page-1" stroke="none" stroke-width="1" fill="none" fill-rule="evenodd">
        <g id="icon-star-circle-outline" fill-rule="nonzero" fill="#000000">
            <g id="Outline_Icons">
                <g id="Group">
                    <path d="M19,9 L14.325,9 L12.457,4.797 C12.297,4.436 11.703,4.436 11.543,4.797 L9.675,9 L5,9 C4.798,9 4.615,9.122 4.538,9.309 C4.461,9.496 4.504,9.71 4.646,9.854 L8.441,13.649 L7.017,18.869 C6.96,19.077 7.043,19.297 7.222,19.416 C7.4,19.535 7.636,19.528 7.806,19.395 L12,16.133 L16.193,19.394 C16.283,19.464 16.391,19.499 16.5,19.499 C16.597,19.499 16.693,19.471 16.777,19.415 C16.956,19.296 17.039,19.075 16.982,18.868 L15.558,13.648 L19.353,9.853 C19.496,9.71 19.539,9.495 19.461,9.308 C19.383,9.121 19.202,9 19,9 Z M14.646,13.146 C14.519,13.273 14.47,13.458 14.517,13.631 L15.622,17.684 L12.306,15.105 C12.217,15.035 12.108,15 12,15 C11.892,15 11.783,15.035 11.693,15.105 L8.377,17.684 L9.482,13.631 C9.529,13.458 9.48,13.273 9.353,13.146 L6.207,10 L10,10 C10.197,10 10.377,9.884 10.457,9.703 L12,6.231 L13.543,9.703 C13.623,9.884 13.803,10 14,10 L17.793,10 L14.646,13.146 Z" id="Shape"></path>
                    <path d="M12,0 C5.383,0 0,5.383 0,12 C0,18.617 5.383,24 12,24 C18.617,24 24,18.617 24,12 C24,5.383 18.617,0 12,0 Z M12,23 C5.935,23 1,18.065 1,12 C1,5.935 5.935,1 12,1 C18.065,1 23,5.935 23,12 C23,18.065 18.065,23 12,23 Z" id="Shape"></path>
                </g>
            </g>
        </g>
    </g>
</svg>