<?xml version="1.0" encoding="UTF-8"?>
<svg width="19px" height="24px" viewBox="0 0 19 24" version="1.1" xmlns="http://www.w3.org/2000/svg" xmlns:xlink="http://www.w3.org/1999/xlink">
    <!-- Generator: Sketch 42 (36781) - http://www.bohemiancoding.com/sketch -->
    <title>icon-address-5</title>
    <desc>Created with Sketch.</desc>
    <defs></defs>
    <g id="Page-1" stroke="none" stroke-width="1" fill="none" fill-rule="evenodd">
        <g id="icon-address-5" fill-rule="nonzero" fill="#000000">
            <g id="Filled_Icons">
                <path d="M9.5,0.006 C4.084,0.006 0,4.304 0,10.006 C0,17.179 8.831,23.64 9.207,23.911 C9.294,23.975 9.398,24.006 9.5,24.006 C9.602,24.006 9.705,23.975 9.793,23.911 C10.168,23.64 19,17.179 19,10.006 C19,4.305 14.916,0.006 9.5,0.006 Z M9.5,15.006 C6.467,15.006 4,12.538 4,9.506 C4,6.473 6.467,4.006 9.5,4.006 C12.532,4.006 15,6.473 15,9.506 C15,12.539 12.532,15.006 9.5,15.006 Z" id="Shape"></path>
            </g>
        </g>
    </g>
</svg>