<?xml version="1.0" encoding="UTF-8"?>
<svg width="22px" height="19px" viewBox="0 0 22 19" version="1.1" xmlns="http://www.w3.org/2000/svg" xmlns:xlink="http://www.w3.org/1999/xlink">
    <!-- Generator: Sketch 42 (36781) - http://www.bohemiancoding.com/sketch -->
    <title>icon-heart-outline</title>
    <desc>Created with Sketch.</desc>
    <defs></defs>
    <g id="Page-1" stroke="none" stroke-width="1" fill="none" fill-rule="evenodd">
        <g id="icon-heart-outline" fill-rule="nonzero" fill="#000000">
            <g id="Outline_Icons">
                <path d="M16.408,0 C14.345,0 12.071,1.04004348 11,3.32252174 C9.945,1.0763913 7.729,0.0528695652 5.72,0.0528695652 C2.877,0.0528695652 0,2.06852174 0,5.91973913 C0,12.9043043 10.286,18.6043043 10.725,18.8438696 C10.808,18.8901304 10.905,18.9124348 11,18.9124348 C11.108,18.9124348 11.216,18.8835217 11.306,18.8265217 C11.743,18.5464783 22,11.913 22,5.43069565 C22,1.86530435 19.187,0 16.408,0 Z M10.978,17.983913 C9.288,16.9926087 1,11.827087 1,5.91973913 C1,2.45678261 3.446,0.878956522 5.72,0.878956522 C7.574,0.878956522 9.939,1.95947826 10.506,5.00443478 C10.543,5.206 10.753,5.35469565 11,5.35469565 C11.247,5.35469565 11.457,5.206 11.494,5.00443478 C12.068,1.92065217 14.5,0.826086957 16.408,0.826086957 C18.62,0.826086957 21,2.2676087 21,5.43069565 C21,10.9316087 12.639,16.8612609 10.978,17.983913 Z" id="Shape"></path>
            </g>
        </g>
    </g>
</svg>