<?xml version="1.0" encoding="UTF-8"?>
<svg width="23px" height="24px" viewBox="0 0 23 24" version="1.1" xmlns="http://www.w3.org/2000/svg" xmlns:xlink="http://www.w3.org/1999/xlink">
    <!-- Generator: Sketch 42 (36781) - http://www.bohemiancoding.com/sketch -->
    <title>icon-shopping-bag-2-outline</title>
    <desc>Created with Sketch.</desc>
    <defs></defs>
    <g id="Page-1" stroke="none" stroke-width="1" fill="none" fill-rule="evenodd">
        <g id="icon-shopping-bag-2-outline" fill-rule="nonzero" fill="#000000">
            <g id="Outline_Icons">
                <g id="Group">
                    <path d="M19.5,8 L0.5,8 C0.224,8 0,8.224 0,8.5 L0,23.5 C0,23.776 0.224,24 0.5,24 L19.5,24 C19.776,24 20,23.776 20,23.5 L20,8.5 C20,8.224 19.776,8 19.5,8 Z M19,23 L1,23 L1,9 L19,9 L19,23 Z" id="Shape"></path>
                    <path d="M5.5,7 C5.776,7 6,6.776 6,6.5 L6,5 C6,2.794 7.794,1 10,1 C12.206,1 14,2.794 14,5 L14,6.5 C14,6.776 14.224,7 14.5,7 C14.776,7 15,6.776 15,6.5 L15,5 C15,2.243 12.757,0 10,0 C7.243,0 5,2.243 5,5 L5,6.5 C5,6.776 5.224,7 5.5,7 Z" id="Shape"></path>
                    <path d="M22.512,2.612 L20.391,0.489 C20.297,0.395 20.17,0.343 20.037,0.343 C19.904,0.343 19.777,0.396 19.683,0.489 L16.146,4.025 C16.053,4.119 16,4.246 16,4.379 L16,6.5 C16,6.776 16.224,7 16.5,7 L18.623,7 C18.756,7 18.883,6.947 18.977,6.854 L22.512,3.319 C22.707,3.124 22.707,2.807 22.512,2.612 Z M18.416,6 L17,6 L17,4.586 L20.037,1.55 L21.451,2.966 L18.416,6 Z" id="Shape"></path>
                </g>
            </g>
        </g>
    </g>
</svg>