<?xml version="1.0" encoding="UTF-8"?>
<svg width="24px" height="24px" viewBox="0 0 24 24" version="1.1" xmlns="http://www.w3.org/2000/svg" xmlns:xlink="http://www.w3.org/1999/xlink">
    <!-- Generator: Sketch 42 (36781) - http://www.bohemiancoding.com/sketch -->
    <title>icon-star-outline</title>
    <desc>Created with Sketch.</desc>
    <defs></defs>
    <g id="Page-1" stroke="none" stroke-width="1" fill="none" fill-rule="evenodd">
        <g id="icon-star-outline" fill-rule="nonzero" fill="#000000">
            <g id="Outline_Icons">
                <path d="M23.969,8.327 C23.896,8.13 23.709,8 23.5,8 L15.347,8 L12.468,0.324 C12.322,-0.066 11.679,-0.066 11.532,0.324 L8.653,8 L0.5,8 C0.291,8 0.104,8.13 0.031,8.327 C-0.042,8.523 0.015,8.744 0.175,8.88 L6.919,14.661 L4.025,23.342 C3.957,23.549 4.029,23.776 4.205,23.904 C4.381,24.033 4.62,24.032 4.796,23.904 L12,18.62 L19.204,23.903 C19.292,23.968 19.396,24 19.5,24 C19.604,24 19.707,23.968 19.795,23.904 C19.971,23.776 20.043,23.549 19.975,23.342 L17.081,14.661 L23.825,8.88 C23.984,8.744 24.042,8.523 23.969,8.327 Z M16.175,14.121 C16.021,14.253 15.961,14.466 16.026,14.659 L18.53,22.169 L12.297,17.598 C12.208,17.532 12.104,17.5 12,17.5 C11.896,17.5 11.792,17.532 11.704,17.597 L5.471,22.168 L7.975,14.658 C8.039,14.465 7.98,14.252 7.826,14.12 L1.852,9 L9,9 C9.208,9 9.395,8.871 9.468,8.676 L12,1.924 L14.532,8.676 C14.605,8.871 14.792,9 15,9 L22.148,9 L16.175,14.121 Z" id="Shape"></path>
            </g>
        </g>
    </g>
</svg>