<?xml version="1.0" encoding="UTF-8"?>
<svg width="24px" height="24px" viewBox="0 0 24 24" version="1.1" xmlns="http://www.w3.org/2000/svg" xmlns:xlink="http://www.w3.org/1999/xlink">
    <!-- Generator: Sketch 42 (36781) - http://www.bohemiancoding.com/sketch -->
    <title>icon-heart-circle-outline</title>
    <desc>Created with Sketch.</desc>
    <defs></defs>
    <g id="Page-1" stroke="none" stroke-width="1" fill="none" fill-rule="evenodd">
        <g id="icon-heart-circle-outline" fill-rule="nonzero" fill="#000000">
            <g id="Outline_Icons">
                <g id="Group">
                    <path d="M12,0 C5.383,0 0,5.383 0,12 C0,18.617 5.383,24 12,24 C18.617,24 24,18.617 24,12 C24,5.383 18.617,0 12,0 Z M12,23 C5.935,23 1,18.065 1,12 C1,5.935 5.935,1 12,1 C18.065,1 23,5.935 23,12 C23,18.065 18.065,23 12,23 Z" id="Shape"></path>
                    <path d="M14.777,7.5 C13.826,7.5 12.706,7.992 12,9.285 C11.294,7.992 10.174,7.5 9.223,7.5 C7.639,7.5 6,8.823 6,11.037 C6,14.218 11.473,18.235 11.706,18.404 C11.794,18.468 11.896,18.5 12,18.5 C12.104,18.5 12.206,18.468 12.294,18.404 C12.527,18.235 18,14.218 18,11.037 C18,8.823 16.361,7.5 14.777,7.5 Z M12,17.376 C10.37,16.13 7,13.124 7,11.037 C7,9.449 8.13,8.5 9.223,8.5 C10.31,8.5 11.166,9.365 11.514,10.813 C11.623,11.263 12.377,11.263 12.487,10.813 C12.834,9.365 13.69,8.5 14.777,8.5 C15.87,8.5 17,9.449 17,11.037 C17,13.121 13.63,16.129 12,17.376 Z" id="Shape"></path>
                </g>
            </g>
        </g>
    </g>
</svg>