<?xml version="1.0" encoding="utf-8"?>
<!-- Generator: Adobe Illustrator 19.2.1, SVG Export Plug-In . SVG Version: 6.00 Build 0)  -->
<svg version="1.1" id="Outline_Icons" xmlns="http://www.w3.org/2000/svg" xmlns:xlink="http://www.w3.org/1999/xlink" x="0px"
	 y="0px" viewBox="0 0 24 24" style="enable-background:new 0 0 24 24;" xml:space="preserve">
<g>
	<path d="M23.8,8.2L23.8,8.2l-2.1-2C21.6,6.1,21.5,6,21.4,6H18v1h3.2l1.1,1H17V6c0-2.8-2.2-5-5-5S7,3.3,7,6v2H1.8l1.1-1H6V6H2.8
		c-0.1,0-0.2,0-0.3,0.1l-2.2,2l0,0C0.1,8.2,0,8.4,0,8.5v15C0,23.8,0.2,24,0.5,24h23c0.3,0,0.5-0.2,0.5-0.5v-15
		C24,8.4,23.9,8.2,23.8,8.2z M8,6c0-2.2,1.8-4,4-4s4,1.8,4,4v2H8C8,8,8,6,8,6z M23,23H1V9h6.5h9H23V23z"/>
	<rect x="9" y="6" width="6" height="1"/>
</g>
</svg>
